<svg xmlns="http://www.w3.org/2000/svg" viewBox="0 0 170.07874 170.07397"><defs><style>.a,.d{fill:#fff;}.b{fill:#261e5b;}.c{fill:#b40b37;}.d{font-size:111.66309px;font-family:KelsonSans-BoldRU, Kelson Sans RU;font-weight:700;}</style></defs><title>f2</title><path class="a" d="M159.6814,85.037A74.642,74.642,0,1,1,85.03938,10.395a74.642,74.642,0,0,1,74.642,74.642"/><path class="b" d="M151.97162,85.037A66.93224,66.93224,0,1,1,85.03938,18.10479,66.93226,66.93226,0,0,1,151.97162,85.037"/><path class="a" d="M107.50836,167.05139A84.42741,84.42741,0,0,0,123.915,160.66l9.32507-18.65063a74.62673,74.62673,0,0,1-19.1029,11.78412Z"/><path class="a" d="M116.1712,17.20013a74.56418,74.56418,0,0,1,12.91248,7.58612l4.70428-9.40856q-1.5139-1.06138-3.07531-2.05738l-.05262-.03375q-1.53652-.97933-3.11737-1.89325l-.12536-.072q-1.57554-.90811-3.19257-1.75092l-.074-.038q-1.643-.853-3.32709-1.637Z"/><path class="a" d="M36.32214,141.562,45.7699,160.458a84.45137,84.45137,0,0,0,16.45788,6.49585l-6.66626-13.33228A74.64379,74.64379,0,0,1,36.32214,141.562Z"/><path class="a" d="M40.77911,24.93988A74.58084,74.58084,0,0,1,53.66882,17.308L49.01636,8.0036q-1.66909.78186-3.29627,1.63532c-.03393.01776-.06836.03454-.10229.05236q-1.61289.8466-3.18353,1.76062c-.03687.02137-.074.04224-.11091.06372q-1.59594.93056-3.14788,1.92688l-.0047.00306q-1.57151,1.01-3.09589,2.08587Z"/><path class="b" d="M40.77911,24.93988l-4.70422-9.40845q-2.95349,2.0843-5.72308,4.40015l-.04932.04272q-2.7442,2.30091-5.28442,4.82679l4.93658,9.87353A75.05757,75.05757,0,0,1,40.77911,24.93988Z"/><path class="b" d="M10.39734,85.03693a74.27061,74.27061,0,0,1,10.21142-37.67l-3.25933-6.51867L.72437,74.09674.72424,74.097l-.00079.00715C.4848,75.96191.29828,77.83551.18152,79.72876l-.00208.02618-.00018.00348C.1405,80.39.11322,81.02448.08545,81.65887.04163,82.78.00018,83.90186.00006,85.03369L0,85.03534v.001l.00006.00238c.00006,1.35156.03821,2.69409.10187,4.02972.00793.16571.01153.33246.02038.49787.0611,1.16369.15632,2.31811.26374,3.46893.03509.37018.06573.74164.10559,1.11041.103.96655.23114,1.92542.36621,2.882.09112.63916.18683,1.27686.29193,1.91138q.17918,1.08929.38727,2.16858c.12561.65411.25586,1.30658.396,1.95544l8.49073-16.98059C10.419,85.733,10.39734,85.38757,10.39734,85.03693Z"/><path class="b" d="M14.47455,109.36523,8.30023,121.7135c.5,1.04413,1.02875,2.07135,1.57044,3.09064.07074.13342.13525.27057.20666.40356q.90024,1.67213,1.87341,3.29785c.01032.01728.01984.03516.03016.05243q1.98852,3.32,4.26184,6.44074.717.98556,1.46167,1.9494c.02057.02661.04168.05267.06225.07922q1.40808,1.81915,2.91242,3.55732.13871.16057.27783.3208a85.492,85.492,0,0,0,8.45776,8.42517q.08524.07378.17041.14758a85.33244,85.33244,0,0,0,9.7666,7.26624l.01258.008q3.11325,1.98642,6.40564,3.70551L36.32214,141.562A74.71644,74.71644,0,0,1,14.47455,109.36523Z"/><path class="b" d="M139.93207,34.47321l4.93048-9.86115A85.45413,85.45413,0,0,0,133.788,15.37769l-4.70428,9.40856A75.04665,75.04665,0,0,1,139.93207,34.47321Z"/><path class="b" d="M170.07867,85.03375c-.00012-1.16314-.04144-2.31622-.0877-3.468q-.06994-1.50541-.18213-2.99964l-.00043-.00659-.00049-.005q-.13924-1.84416-.3529-3.6659l-.00043-.00427-.00018-.00037L152.43652,40.84821l-3.1231,6.24627a74.274,74.274,0,0,1,10.368,37.94245c0,.53784-.02924,1.06848-.04053,1.60363l8.41211,16.82428q.7067-3.19692,1.17328-6.47937c.12555-.89227.24389-1.78686.34155-2.6878.04907-.44562.08868-.894.13086-1.34162.10223-1.1065.19409-2.21612.25354-3.33453.01141-.21.01666-.42151.02655-.6319.06146-1.30975.09985-2.62567.09991-3.95074l.00007-.0025v-.001Z"/><path class="b" d="M133.24011,142.00934,123.915,160.66a85.24361,85.24361,0,0,0,16.48431-11.10009l.00922-.00794q1.868-1.6039,3.64008-3.31274l.03167-.03022q2.613-2.52163,5.00476-5.2611c.087-.09949.173-.19971.25952-.29963q1.51081-1.74508,2.92829-3.571c.03045-.03931.06183-.078.09222-.11737q.74909-.96972,1.471-1.96118a84.97654,84.97654,0,0,0,7.79962-12.98413L155.486,109.71472A74.73969,74.73969,0,0,1,133.24011,142.00934Z"/><path class="b" d="M90.398,169.88867a84.81231,84.81231,0,0,0,17.11041-2.83728l6.62885-13.25793a74.12024,74.12024,0,0,1-18.2367,5.08978Z"/><path class="b" d="M55.56152,153.62158l6.66626,13.33228a84.78882,84.78882,0,0,0,17.1485,2.91156l-5.51111-11.022A74.08651,74.08651,0,0,1,55.56152,153.62158Z"/><path class="b" d="M102.31671,12.42719a74.06,74.06,0,0,1,13.85449,4.77294l4.65241-9.30474A84.39062,84.39062,0,0,0,107.0799,2.90082Z"/><path class="b" d="M62.7417,2.97406A84.40974,84.40974,0,0,0,49.01636,8.0036L53.66882,17.308A74.06939,74.06939,0,0,1,67.4989,12.48792Z"/><path class="c" d="M24.48053,25.35291q-.979.99325-1.92456,2.01867c-.25366.27466-.50836.54846-.75842.82648Q20.702,29.41617,19.652,30.67493c-.21832.26226-.43073.52954-.64594.79443q-.87927,1.08243-1.72375,2.19354c-.17554.23114-.35553.45868-.52875.69159q-.999,1.34382-1.94189,2.73072-.29974.43817-.59314.88092c-.62421.93725-1.23688,1.88281-1.82434,2.84576l-.0224.03552c-.07856.12891-.1529.26062-.23078.39q-.86343,1.434-1.67022,2.90478c-.09784.17816-.19916.35425-.29572.5332-.5224.967-1.01941,1.94941-1.505,2.93848-.1397.2851-.28326.568-.41986.85486-.433.90765-.84314,1.82794-1.24462,2.753-.17652.40778-.35431.81482-.5246,1.22589-.34558.83209-.67334,1.67328-.993,2.51843-.20075.53235-.39881,1.0661-.589,1.60346Q4.4978,57.69857,4.1297,58.843q-.31732.98419-.61121,1.97876c-.05706.19238-.10888.38684-.16461.57977-.35974,1.24982-.6961,2.50946-.99957,3.78217-.00964.0404-.01849.08117-.02808.12158A85.31582,85.31582,0,0,0,.72516,74.09039L.72424,74.097l.00013-.00024L17.34943,40.84821l3.25933,6.51867a74.88245,74.88245,0,0,1,9.34589-12.69226l-4.93658-9.87353C24.83612,24.98236,24.66083,25.17,24.48053,25.35291Z"/><path class="c" d="M1.933,103.06311c.03992.18494.08625.36749.12738.552q.49741,2.23059,1.11121,4.41541.08414.30038.17029.59985c.32025,1.11578.66632,2.2204,1.03015,3.3169.14862.44567.29578.892.45154,1.33441.1958.55884.39538,1.1159.60254,1.66931q.50537,1.34445,1.05206,2.66821c.16528.39917.33716.7948.50836,1.19086.40674.9386.82337,1.872,1.26258,2.79272.01745.03669.03356.0741.05108.11072l6.17432-12.34827a74.46023,74.46023,0,0,1-4.05078-23.28271Z"/><path class="c" d="M169.45154,74.86139q-.2657-2.22657-.64581-4.4165c-.025-.14429-.05146-.28821-.07715-.43226q-.345-1.93863-.77729-3.846-.08679-.38288-.17645-.76447-.38919-1.651-.84411-3.27563c-.109-.39026-.21747-.7807-.33185-1.16871q-.34434-1.172-.72235-2.3291c-.21521-.659-.43506-1.31579-.66578-1.96759q-.27063-.76667-.55389-1.52734-.49566-1.3191-1.0321-2.61768c-.16779-.40588-.34052-.80926-.51441-1.212-.40521-.9364-.82171-1.8667-1.25921-2.78534-.14307-.30084-.292-.59827-.43848-.8971-.48773-.99365-.98706-1.98053-1.5119-2.9519-.10211-.18909-.20966-.37476-.31317-.563q-.79734-1.44909-1.6471-2.8645c-.07886-.131-.154-.2644-.23352-.3949l-.01953-.031c-.58576-.96027-1.197-1.90314-1.81934-2.83789q-.31238-.469-.63-.934c-.621-.90661-1.25458-1.804-1.90936-2.68493-.20514-.27576-.419-.54456-.62745-.81769q-.7488-.98237-1.52581-1.94159c-.28882-.35663-.57636-.71429-.87079-1.06616q-.96679-1.1565-1.97321-2.278c-.344-.38293-.69629-.75805-1.04712-1.1347q-.66531-.71475-1.34741-1.41327c-.35712-.36639-.71081-.73614-1.0744-1.09613l-4.93048,9.86115a74.88536,74.88536,0,0,1,9.38135,12.62127l3.1231-6.24627L169.45441,74.884l.00018.00037Z"/><path class="c" d="M155.486,109.71472l6.14972,12.29987c.08978-.18567.173-.37494.26148-.56134.41729-.87909.81646-1.76825,1.20416-2.66364.14911-.3454.30182-.6889.44641-1.03668.37952-.90961.73792-1.83,1.08643-2.75531q.30111-.80337.58648-1.61426c.1687-.47711.32685-.95892.48725-1.43988.35565-1.07239.69488-2.1521,1.00891-3.24292q.089-.30742.17492-.616.619-2.21209,1.12653-4.46942c.01117-.05023.02356-.1.03467-.15027l-8.41211-16.82428A74.43387,74.43387,0,0,1,155.486,109.71472Z"/><path class="c" d="M73.86517,158.84344l5.51111,11.022c.80072.05267,1.60462.09344,2.41.1286.92188.03473,1.84479.065,2.774.07013.16046.00116.31915.00982.47992.00982.12372,0,.24591-.00634.36951-.007.97113-.00415,1.9353-.03681,2.89856-.07331.69787-.03,1.39532-.06177,2.08972-.105l5.50256-11.00543a74.83389,74.83389,0,0,1-22.03534-.0398Z"/><path class="c" d="M103.80554,2.10107q-1.6516-.37317-3.32763-.67926c-.56208-.10315-1.123-.20953-1.68885-.30157C98.18933,1.02209,97.586.93506,96.98218.84949q-1.10111-.1549-2.21112-.281C94.26489.51025,93.75958.44928,93.25073.4Q91.63868.24543,90.009.15344c-.40545-.02368-.81207-.043-1.21911-.06091C87.63391.0423,86.47394.00806,85.30652.00446,85.21747.00415,85.12927,0,85.04016,0c-.09357,0-.186.00439-.27954.0047-1.15979.00372-2.31219.03784-3.46057.08752q-.63885.02811-1.27539.0647Q78.56375.242,77.11719.378c-.65851.06165-1.31372.134-1.96778.21057Q74.13611.706,73.12952.84528c-.67255.09515-1.34375.19476-2.01117.30554-.3667.06042-.73.13049-1.0951.19555q-2.13481.38316-4.2337.86634c-.18.04168-.36053.08185-.5401.12463q-1.26058.3013-2.50775.63672l4.7572,9.51386a74.50562,74.50562,0,0,1,34.81781-.06073l4.76319-9.52637c-.73481-.19666-1.47565-.37824-2.218-.55591C104.51074,2.261,104.15833,2.18054,103.80554,2.10107Z"/><text class="d" transform="translate(55.18772 121.71351)">2</text></svg>