<svg xmlns="http://www.w3.org/2000/svg" viewBox="0 0 2180.19995 248"><defs><style>.a{fill:#bcd7f2;}.b{fill:#271c5e;}.c{fill:#fff;}.d{fill:#cb0935;}</style></defs><title>ar</title><rect class="a" width="2180.19995" height="248"/><path class="b" d="M1962.2,111.8C2024.5,111.8,2075.09985,61.9,2076,0h-36C2039.2,42.1,2004.6,76,1962.2,76A77.6522,77.6522,0,0,1,1884.3999,0h-35.9C1849.30005,61.9,1899.9,111.8,1962.2,111.8Z"/><path class="c" d="M1962.2,76A77.6522,77.6522,0,0,0,2040,0H2017.2a54.88935,54.88935,0,0,1-55,53.3,54.88936,54.88936,0,0,1-55-53.3H1884.3999A77.6522,77.6522,0,0,0,1962.2,76Z"/><path class="b" d="M1962.2,53.3a54.88935,54.88935,0,0,0,55-53.3h-110A54.88944,54.88944,0,0,0,1962.2,53.3Z"/><path class="b" d="M1962.2,135c-62.69995,0-113.6,50.5-113.80005,113h35.9A77.9032,77.9032,0,0,1,2040.1,248H2076C2075.80005,185.6,2024.9,135,1962.2,135Z"/><path class="c" d="M1962.2,170.8a77.78279,77.78279,0,0,0-77.9,77.2H1907.1a55.00331,55.00331,0,0,1,110,0h22.8A77.48238,77.48238,0,0,0,1962.2,170.8Z"/><path class="d" d="M1962.2,193.6a54.84318,54.84318,0,0,0-55,54.4h110.1A54.99405,54.99405,0,0,0,1962.2,193.6Z"/><path class="b" d="M1799.2,123.4a55.03312,55.03312,0,0,0-55.1-54.9V178.2A54.82053,54.82053,0,0,0,1799.2,123.4Z"/><path class="b" d="M1858,123.4C1858,60.8,1807,10,1744.2,10h0c-62.9,0-113.80005,50.8-113.80005,113.4s51,113.4,113.80005,113.4h0C1807.1,236.8,1858,186,1858,123.4ZM1744.2,201a77.60058,77.60058,0,1,1,0-155.2c43,0,77.9,34.8,77.9,77.6A77.7378,77.7378,0,0,1,1744.2,201Z"/><path class="c" d="M1744.2,45.8a77.60058,77.60058,0,1,0,77.9,77.6A77.73779,77.73779,0,0,0,1744.2,45.8Zm0,132.5a54.90036,54.90036,0,1,1,55.1-54.9A55.03312,55.03312,0,0,1,1744.2,178.3Z"/><path class="d" d="M1689.1,123.4a55.03312,55.03312,0,0,0,55.1,54.9V68.6A54.9481,54.9481,0,0,0,1689.1,123.4Z"/><path class="b" d="M1526.2,111.8C1588.5,111.8,1639.1,61.9,1640,0h-36C1603.2,42.1,1568.6,76,1526.2,76A77.6522,77.6522,0,0,1,1448.3999,0h-35.9C1413.2,61.9,1463.80005,111.8,1526.2,111.8Z"/><path class="c" d="M1526.2,76A77.6522,77.6522,0,0,0,1604,0H1581.2a54.88935,54.88935,0,0,1-55,53.3,54.88936,54.88936,0,0,1-55-53.3H1448.3999A77.6522,77.6522,0,0,0,1526.2,76Z"/><path class="b" d="M1526.2,53.3a54.88935,54.88935,0,0,0,55-53.3h-110A54.88944,54.88944,0,0,0,1526.2,53.3Z"/><path class="b" d="M1526.2,135c-62.69995,0-113.6,50.5-113.80005,113h35.9A77.9032,77.9032,0,0,1,1604.1,248H1640C1639.7,185.6,1588.9,135,1526.2,135Z"/><path class="c" d="M1526.2,170.8a77.78279,77.78279,0,0,0-77.9,77.2H1471.1a55.00331,55.00331,0,0,1,110,0h22.8A77.54643,77.54643,0,0,0,1526.2,170.8Z"/><path class="d" d="M1526.2,193.6a54.84318,54.84318,0,0,0-55,54.4h110.1A55.05882,55.05882,0,0,0,1526.2,193.6Z"/><path class="b" d="M1308.1,10c-62.9,0-113.80005,50.8-113.80005,113.4s51,113.4,113.80005,113.4c62.9,0,113.8-50.8,113.8-113.4C1422,60.8,1371,10,1308.1,10Zm0,191a77.60058,77.60058,0,1,1,77.9-77.6A77.7378,77.7378,0,0,1,1308.1,201Z"/><path class="c" d="M1308.1,45.8a77.60058,77.60058,0,1,0,77.9,77.6A77.7378,77.7378,0,0,0,1308.1,45.8Zm0,132.5a54.90036,54.90036,0,1,1,55.1-54.9A55.03312,55.03312,0,0,1,1308.1,178.3Z"/><path class="b" d="M1308.1,68.6V178.3a54.85056,54.85056,0,1,0,0-109.7Z"/><path class="d" d="M1253.1,123.4a55.03312,55.03312,0,0,0,55.1,54.9V68.6A54.88423,54.88423,0,0,0,1253.1,123.4Z"/><path class="b" d="M1090.1,111.8c62.3,0,112.9-49.9,113.8-111.8H1168C1167.2,42.1,1132.6,76,1090.2,76a77.65211,77.65211,0,0,1-77.8-76h-35.9C977.2,61.9,1027.80005,111.8,1090.1,111.8Z"/><path class="c" d="M1090.1,76a77.65219,77.65219,0,0,0,77.8-76h-22.8a54.88936,54.88936,0,0,1-55,53.3,54.88935,54.88935,0,0,1-55-53.3h-22.8A77.65211,77.65211,0,0,0,1090.1,76Z"/><path class="b" d="M1090.1,53.3a54.88936,54.88936,0,0,0,55-53.3h-110A54.88935,54.88935,0,0,0,1090.1,53.3Z"/><path class="b" d="M1090.1,135c-62.7,0-113.6,50.5-113.8,113h35.9a77.90317,77.90317,0,0,1,155.8,0h35.9C1203.7,185.6,1152.80005,135,1090.1,135Z"/><path class="c" d="M1090.1,170.8a77.7828,77.7828,0,0,0-77.9,77.2H1035a55.00331,55.00331,0,0,1,110,0h22.80005A77.48247,77.48247,0,0,0,1090.1,170.8Z"/><path class="d" d="M1090.1,193.6a54.84318,54.84318,0,0,0-55,54.4h110.1A54.99405,54.99405,0,0,0,1090.1,193.6Z"/><path class="b" d="M927.2,123.4a55.03316,55.03316,0,0,0-55.1-54.9V178.2A54.88407,54.88407,0,0,0,927.2,123.4Z"/><path class="b" d="M872.1,10c-62.9,0-113.8,50.8-113.8,113.4s51,113.4,113.8,113.4c62.9,0,113.8-50.8,113.8-113.4S935,10,872.1,10Zm0,191a77.60058,77.60058,0,1,1,0-155.2c43,0,77.9,34.8,77.9,77.6A77.73779,77.73779,0,0,1,872.1,201Z"/><path class="c" d="M872.1,45.8A77.60058,77.60058,0,1,0,950,123.4,77.7378,77.7378,0,0,0,872.1,45.8Zm0,132.5a54.90036,54.90036,0,1,1,55.1-54.9A55.03312,55.03312,0,0,1,872.1,178.3Z"/><path class="d" d="M817,123.4a55.03316,55.03316,0,0,0,55.1,54.9V68.6A54.94806,54.94806,0,0,0,817,123.4Z"/><path class="b" d="M654.1,111.8C716.4,111.8,767,61.9,767.8,0H731.9c-.8,42.1-35.4,76-77.8,76A77.65211,77.65211,0,0,1,576.3,0H540.4C541.1,61.9,591.7,111.8,654.1,111.8Z"/><path class="c" d="M654.1,76A77.6521,77.6521,0,0,0,731.9,0H709.1a54.88932,54.88932,0,0,1-55,53.3A54.88931,54.88931,0,0,1,599.1,0H576.3A77.65211,77.65211,0,0,0,654.1,76Z"/><path class="b" d="M654.1,53.3A54.88932,54.88932,0,0,0,709.1,0H599A55.04426,55.04426,0,0,0,654.1,53.3Z"/><path class="b" d="M654.1,135c-62.7,0-113.6,50.5-113.8,113h35.9a77.9032,77.9032,0,0,1,155.8,0h35.9C767.6,185.6,716.8,135,654.1,135Z"/><path class="c" d="M654.1,170.8a77.7828,77.7828,0,0,0-77.9,77.2H599a55.00331,55.00331,0,0,1,110,0h22.8A77.54639,77.54639,0,0,0,654.1,170.8Z"/><path class="d" d="M654.1,193.6a54.84326,54.84326,0,0,0-55,54.4h110.1A55.05885,55.05885,0,0,0,654.1,193.6Z"/><path class="b" d="M436,10c-62.9,0-113.8,50.8-113.8,113.4s51,113.4,113.8,113.4c62.9,0,113.8-50.8,113.8-113.4C549.9,60.8,498.9,10,436,10Zm0,191a77.60058,77.60058,0,1,1,77.9-77.6A77.73777,77.73777,0,0,1,436,201Z"/><path class="c" d="M436,45.8a77.60058,77.60058,0,1,0,77.9,77.6A77.73776,77.73776,0,0,0,436,45.8Zm0,132.5a54.90036,54.90036,0,1,1,55.1-54.9A55.03317,55.03317,0,0,1,436,178.3Z"/><path class="b" d="M436,68.6V178.3a54.85056,54.85056,0,1,0,0-109.7Z"/><path class="d" d="M381,123.4a55.03316,55.03316,0,0,0,55.1,54.9V68.6A54.88426,54.88426,0,0,0,381,123.4Z"/><path class="b" d="M218,111.8c62.3,0,112.9-49.9,113.8-111.8H295.9A77.80554,77.80554,0,0,1,218,76,77.65213,77.65213,0,0,1,140.2,0H104.3C105.1,61.9,155.7,111.8,218,111.8Z"/><path class="c" d="M218,76A77.65211,77.65211,0,0,0,295.8,0H273a54.88934,54.88934,0,0,1-55,53.3A54.88935,54.88935,0,0,1,163,0H140.2A77.65213,77.65213,0,0,0,218,76Z"/><path class="b" d="M218,53.3A54.88934,54.88934,0,0,0,273,0H163A54.88935,54.88935,0,0,0,218,53.3Z"/><path class="b" d="M218,135c-62.7,0-113.6,50.5-113.8,113h35.9a77.90316,77.90316,0,0,1,155.8,0h35.9C331.6,185.6,280.7,135,218,135Z"/><path class="c" d="M218,170.8A77.78274,77.78274,0,0,0,140.1,248H163a55.00331,55.00331,0,0,1,110,0h22.8A77.63233,77.63233,0,0,0,218,170.8Z"/><path class="d" d="M218,193.6A54.84325,54.84325,0,0,0,163,248H273.1A54.99417,54.99417,0,0,0,218,193.6Z"/><path class="b" d="M113.8,123.4C113.8,60.8,62.9,10,0,10V45.8A77.60058,77.60058,0,1,1,0,201v35.8C62.9,236.8,113.8,186.1,113.8,123.4Z"/><path class="c" d="M55.1,123.4A55.03316,55.03316,0,0,1,0,178.3V201a77.73777,77.73777,0,0,0,77.9-77.6C77.9,80.6,43,45.8,0,45.8V68.5A55.09747,55.09747,0,0,1,55.1,123.4Z"/><path class="b" d="M55.1,123.4A55.03316,55.03316,0,0,0,0,68.5V178.2A54.88407,54.88407,0,0,0,55.1,123.4Z"/><path class="b" d="M2180.2,200.95013a77.60055,77.60055,0,1,1,0-155.19995v-35.8c-62.90015,0-113.80005,50.80005-113.80005,113.4s51,113.4,113.80005,113.4Z"/><path class="c" d="M2180.1001,178.24767a54.89762,54.89762,0,1,1,0-109.795V45.75268a77.59774,77.59774,0,1,0,0,155.195Z"/><path class="d" d="M2125.1,123.35015a55.03312,55.03312,0,0,0,55.1,54.9v-109.7A54.9481,54.9481,0,0,0,2125.1,123.35015Z"/></svg>