<svg xmlns="http://www.w3.org/2000/svg" width="1768.622" height="457.34" viewBox="0 0 1768.622 457.34">
  <metadata><?xpacket begin="﻿" id="W5M0MpCehiHzreSzNTczkc9d"?>
<x:xmpmeta xmlns:x="adobe:ns:meta/" x:xmptk="Adobe XMP Core 5.6-c140 79.160451, 2017/05/06-01:08:21        ">
   <rdf:RDF xmlns:rdf="http://www.w3.org/1999/02/22-rdf-syntax-ns#">
      <rdf:Description rdf:about=""/>
   </rdf:RDF>
</x:xmpmeta>
                                                                                                    
                                                                                                    
                                                                                                    
                                                                                                    
                                                                                                    
                                                                                                    
                                                                                                    
                                                                                                    
                                                                                                    
                                                                                                    
                                                                                                    
                                                                                                    

                                                                                                    
                                                                                                    
                                                                                                    
                                                                                                    
                                                                                                    
                                                                                                    
                                                                                                    
                           
<?xpacket end="w"?></metadata>
<defs>
    <style>
      .cls-1 {
        fill: #d20536;
        fill-rule: evenodd;
      }
    </style>
  </defs>
  <path id="block_txt1" class="cls-1" d="M294.07,2039.67v-161.5h60.181v161.5H388.43V1846.68H259.89v192.99h34.18Zm141.863-12.02q15.032,13.725,48.992,13.73,34.143,0,49.818-13.79t15.675-43.7v-81.42q0-30.525-15.372-44.01t-50.121-13.49q-34.569,0-49.3,13.37T420.9,1902.47v81.42Q420.9,2013.92,435.933,2027.65Zm19.148-123.38a52.434,52.434,0,0,1,1.161-11.95,23.235,23.235,0,0,1,4.28-8.91,18.312,18.312,0,0,1,9.175-5.97,50.434,50.434,0,0,1,15.228-1.95,56.133,56.133,0,0,1,16.146,1.95,18.864,18.864,0,0,1,9.6,6.04,22.81,22.81,0,0,1,4.4,8.84,51.411,51.411,0,0,1,1.162,11.95v77.93a46.229,46.229,0,0,1-1.408,12.26,22.087,22.087,0,0,1-4.831,8.9,20.026,20.026,0,0,1-9.6,5.67,55.011,55.011,0,0,1-15.472,1.83,52.539,52.539,0,0,1-15.167-1.83,18.3,18.3,0,0,1-9.175-5.73,21.675,21.675,0,0,1-4.341-8.78,54.468,54.468,0,0,1-1.161-12.32v-77.93ZM590.5,2026.85q14.451,15.015,44.968,15.02,58.866,0,58.867-59.93a76.9,76.9,0,0,0-1.877-17.49,45.306,45.306,0,0,0-7.33-15.78,35.152,35.152,0,0,0-14.208-11.78,32.741,32.741,0,0,0,11.3-7.81,37.167,37.167,0,0,0,7.334-10.99,62.909,62.909,0,0,0,3.633-11.11,45.982,45.982,0,0,0,1.145-9.76q0-25.08-15.738-39.16t-41.986-13.7q-30.582.615-44.535,13.24-13.953,12.645-13.952,41.94h34.179q0-24.66,23.377-24.66,10.835,0,16.861,6.16t6.027,16.91q0,13.3-7.074,18.74t-20.853,5.43q-2.856.24-6.02,0.24t-7.013-.12q-3.849-.12-5.957-0.12v31h18.98q14.016,0,21.77,7.95,7.754,7.935,7.754,21.6,0,14.79-5.831,21t-18.856,6.22q-12.921,0-19.079-6.83t-6.161-22.1h-34.18Q576.052,2011.845,590.5,2026.85Zm147.414,40.29v-27.47h87.768v27.47h34.18v-57.99H840.7V1846.68H735.72v92.04q0,51.15-17.667,70.43H703.738v57.99h34.18Zm28.1-90.27a196.392,196.392,0,0,0,3.887-38.28V1877.2h36.621v131.95H753.613Q762.127,1996.445,766.013,1976.87Zm149.761,62.8v-58.96H928.96q34.114,0,50.869-14.34t16.756-44.01v-17.7q0-30.27-16.257-43.88t-51.054-13.61H881.35v192.5h34.424Zm-0.244-161.01H929.6q13.095,0,20.378,3.24,7.283,3.225,9.852,8.97t2.571,15.5v14.28q0,14.175-7.465,20.45t-25.824,6.29H915.53v-68.73Zm130.74,161.01,10.01-34.42h49.31l9.65,34.42h35.52l-52.49-192.26h-34.18l-53.35,192.26h35.53Zm34.54-139.04,15.99,71.29h-31.98ZM1219,2039.67q16.575,0,28.56-2.93a54.567,54.567,0,0,0,20.8-9.76,40.682,40.682,0,0,0,13.18-18.62q4.35-11.775,4.35-28.75,0-19.275-7.66-30.57t-21.86-14.59a32.891,32.891,0,0,0,16.5-14.83,47.655,47.655,0,0,0,5.57-23.26q0-25.26-15.17-37.47t-41.08-12.21h-54.22v192.99H1219Zm-16.85-86.79h18.07q12.45,0,19.41,3.11t9.52,8.85q2.565,5.745,2.56,15.63,0,16.47-6.83,22.09t-24.17,5.62h-18.56v-55.3Zm0.37-75.2h20.63a26.731,26.731,0,0,1,10.43,1.84,14.677,14.677,0,0,1,6.53,4.94,21.467,21.467,0,0,1,3.18,6.53,27.071,27.071,0,0,1,.98,7.45q0,9.765-5.38,16.11t-15.38,6.35h-20.99v-43.22Zm124.51,159.79q11.715-3.9,18.43-10.98t10.56-20.14a142.835,142.835,0,0,0,5.13-25.33q1.275-12.27,1.65-30.83l1.71-72.02h45.4v161.5h34.18V1846.68H1328.62v108.89q0,10.155-.25,14.5a123.2,123.2,0,0,1-1.84,13.28q-1.59,8.925-4.35,12.96a25.453,25.453,0,0,1-8.46,7.35q-5.7,3.3-13.78,2.69l-1.23,33.32Q1315.315,2041.38,1327.03,2037.47Zm184.48,2.2,37.53-68.09h13.58v68.09h34.18V1846.68h-47.79q-34.62,0-50.91,13.78t-16.29,44.15v10q0,21.345,7.48,33.66t24.06,18.05l-42.37,73.35h40.53Zm4.48-133.5a50.116,50.116,0,0,1,1.23-12.22,20.187,20.187,0,0,1,4.59-8.56,19.255,19.255,0,0,1,9.73-5.5,64.163,64.163,0,0,1,16.27-1.72h15.06v61.62H1548.3q-18.225,0-25.27-6.36t-7.04-20.66v-6.6Zm231.94,133.75v-31.5h-80.08v-50.78h65.31v-31h-65.31V1877.2h76.66v-30.03H1633.67v192.75h114.26Zm60.91-.25v-67.99l-3.99-55.05,38.35,77.51h7.7l38.23-77.51-3.87,55.05v67.99h34.18v-192.5h-32.96l-39.61,85.2-39.25-85.2h-32.96v192.5h34.18ZM215.755,2258.86q10.566,10.665,32.713,10.67,23.049,0,33.954-9.98,10.9-9.96,10.9-32.33H267.349q-0.187,10.065-4.465,14.59t-14.416,4.52q-9.766,0-13.535-5.36t-3.766-16.47v-24.24q0-11.01,4.139-16.42t14.557-5.42q9.486,0,13.487,4.57t4,14.36h25.977q0-22.455-10.527-32.29t-33.494-9.83q-44.115,0-44.114,45v25.04Q205.191,2248.19,215.755,2258.86Zm158.283,29.69v-20.88h66.7v20.88h25.977v-44.07H452.154V2121H372.368v69.95q0,38.865-13.427,53.53H348.062v44.07h25.976Zm21.353-68.61a149.177,149.177,0,0,0,2.954-29.09v-46.66h27.832v100.29h-40.21Q392.438,2234.82,395.391,2219.94Zm111.592,47.73v-46.38h34.511v46.38h25.977v-110.4H541.494v41.75H506.983v-41.75H481.006v110.4h25.977Zm90.883-10.2q10.632,10.575,32.736,10.57,22.433,0,33.32-8.58t10.888-26.21H648.462q0,12.06-17.488,12.06a27.492,27.492,0,0,1-7.348-.83,13.819,13.819,0,0,1-5.488-3.05,13.21,13.21,0,0,1-3.721-6.56,41.471,41.471,0,0,1-1.209-10.91v-2.86h61.6v-22.17q0-22.545-10.84-33.12T630.6,2155.23q-21.731,0-32.551,11.18t-10.819,32.52v25.42Q587.232,2246.9,597.866,2257.47Zm16.04-66.86a20.356,20.356,0,0,1,2.558-6.72,10.779,10.779,0,0,1,5.533-4.5,26.137,26.137,0,0,1,9.35-1.43q10.509,0,14,5.11t3.489,16.6H613.208A49.084,49.084,0,0,1,613.906,2190.61Zm107.569,77.06v-28.11l-2.969-37.29,26.533,51.12h10.113l26.647-51.12-3.083,37.29v28.11h25.977v-110.4H779.464l-29.415,55.11-28.574-55.11H695.5v110.4h25.977Zm180.444,0V2144.93h47.407V2121H875.943v146.67h25.976Zm71.972-8.72q10.554,10.575,32.729,10.58t32.77-10.58q10.59-10.575,10.6-33.12v-26.9q0-22.545-10.64-33.12t-32.74-10.58q-21.864,0-32.571,10.81t-10.7,32.89v26.9Q963.335,2248.375,973.891,2258.95Zm15.421-58.69q0-11.1,3.767-16.47t13.531-5.37q9.78,0,13.59,5.37t3.81,16.47v24.24q0,11.1-3.81,16.47-3.825,5.37-13.59,5.36t-13.531-5.36q-3.768-5.37-3.767-16.47v-24.24Zm109.008,101.46v-42.69q5.76,9.75,23.07,9.76,18.435,0,27.97-10.86t9.54-30.89v-28.95q0-22.44-9.68-32.89-9.675-10.425-27.09-10.43a35.936,35.936,0,0,0-16.24,3.43,22.84,22.84,0,0,0-10.2,9.56l-1.82-12.16h-21.53v146.12h25.98Zm0-101.25q0-10.41,4.23-16.46t13.45-6.05q8.175,0,12.55,4.98t4.38,16.6v26.42q0,9.87-4.47,14.38t-13.21,4.51q-16.935,0-16.93-18.7v-25.68Zm92.2,58.48q10.545,10.575,32.73,10.58t32.77-10.58q10.59-10.575,10.59-33.12v-26.9q0-22.545-10.63-33.12t-32.74-10.58q-21.87,0-32.58,10.81t-10.7,32.89v26.9Q1179.96,2248.375,1190.52,2258.95Zm15.42-58.69q0-11.1,3.77-16.47t13.53-5.37q9.765,0,13.58,5.37t3.82,16.47v24.24q0,11.1-3.82,16.47t-13.58,5.36q-9.765,0-13.53-5.36-3.78-5.37-3.77-16.47v-24.24Zm96.57,87.54v-20.13h61.79v20.13h25.98v-43.32H1375.9v-87.39h-74.96v43.23q0,6.855-.31,11.66a111.375,111.375,0,0,1-1.36,11.21,43.467,43.467,0,0,1-3.65,11.75,37.261,37.261,0,0,1-6.53,9.54h-12.55v43.32h25.97Zm24.4-87.45v-20.07h23.01v64.2h-33.76q10.755-15.45,10.75-44.13h0Zm79.41,60.6q9.255,8.205,24.14,8.21a37.625,37.625,0,0,0,16.96-3.85,33.967,33.967,0,0,0,12.58-10.53l2.62,12.89h22.19v-68.93q0-22.08-10.39-32.89t-32.7-10.8q-21.375,0-31.9,9.37-10.545,9.36-9.34,29.68h25.98q-0.09-8.85,3.35-12.36,3.435-3.495,12.1-3.5,9.765,0,13.35,5.93t3.58,19.18q-61.785-4.275-61.79,34.09Q1397.05,2252.74,1406.32,2260.95Zm25.22-36.3q8.52-3.51,27.3-1.57a42.731,42.731,0,0,1-1.58,8.25,26.716,26.716,0,0,1-3.35,6.94,14.411,14.411,0,0,1-6.19,5.14,22.521,22.521,0,0,1-9.44,1.81q-15.255,0-15.25-9.82Q1423.03,2228.17,1431.54,2224.65Zm201.06,43.02v-25.32h-56.31v-4.76a34.76,34.76,0,0,1,2-12.41,22.418,22.418,0,0,1,5.35-8.4,34.749,34.749,0,0,1,7.77-5.5,97.138,97.138,0,0,1,9.17-4.25q4.74-1.905,9.54-4.06a44.765,44.765,0,0,0,9.17-5.55,37.206,37.206,0,0,0,7.7-8.16,38.56,38.56,0,0,0,5.3-12.41,71.136,71.136,0,0,0,1.98-17.73,45.661,45.661,0,0,0-2.44-15.29,35.328,35.328,0,0,0-7.29-12.23,31.865,31.865,0,0,0-12.82-8.23,53.645,53.645,0,0,0-18.5-2.93q-22.23,0-32.15,10.72t-9.92,32.98h25.88q0-8.445,1.77-12.94t5.07-6.04a22.289,22.289,0,0,1,9.17-1.53q15.255,0,15.26,15.87a25.418,25.418,0,0,1-2,10.44,20.4,20.4,0,0,1-5.35,7.33,44.6,44.6,0,0,1-7.77,5.22q-4.425,2.385-9.17,4.56t-9.54,4.71a48.313,48.313,0,0,0-9.18,6.39,40.332,40.332,0,0,0-13,21.83,72.359,72.359,0,0,0-1.98,17.72v29.97h82.29Zm30.41-10.2q10.56,10.575,32.73,10.57t32.77-10.57q10.6-10.575,10.6-33.12v-59.1q0-22.545-10.64-33.12t-32.73-10.58q-21.87,0-32.58,10.81t-10.7,32.89v59.1Q1652.46,2246.9,1663.01,2257.47Zm15.42-90.92q0-11.13,3.77-16.47,3.765-5.325,13.54-5.33t13.58,5.33q3.81,5.34,3.81,16.47v56.5q0,11.13-3.81,16.47-3.825,5.325-13.58,5.33-9.78,0-13.54-5.33t-3.77-16.47v-56.5Zm147.51,101.12v-21.43h-23.1V2121h-45.09v22.73h19.12v102.51h-24.22v21.43h73.29Zm21.14-8.76q10.575,10.62,32.73,10.62t32.71-10.62q10.56-10.635,10.56-33.27v-10.25q0-10.35-3.44-17.24a39.178,39.178,0,0,0-10.67-12.77q5.535-3.8,8.98-11.95a40,40,0,0,0,3.46-15.57,42.289,42.289,0,0,0-2.4-14.52,33.882,33.882,0,0,0-7.24-11.77,32.343,32.343,0,0,0-12.97-8.05,62.626,62.626,0,0,0-37.61,0,32.624,32.624,0,0,0-12.97,8.05,33.517,33.517,0,0,0-7.27,11.77,42.529,42.529,0,0,0-2.39,14.52,39.9,39.9,0,0,0,3.21,15.29,26.549,26.549,0,0,0,9.82,12.23q-8.085,4.95-11.58,12.03t-3.49,17.98v10.25Q1836.52,2248.275,1847.08,2258.91Zm15.42-42.02q0-10.935,3.72-15.88,3.72-4.965,13.58-4.96,9.765,0,13.53,5.05t3.77,15.79v7.59q0,11.115-3.77,16.48t-13.53,5.37q-9.78,0-13.54-5.37t-3.76-16.48v-7.59Zm17.48-73.07q7.26,0,11.35,3.99a14.108,14.108,0,0,1,4.1,10.6,17.29,17.29,0,0,1-3.86,11.14,13.3,13.3,0,0,1-10.28,5.07h-1.31a14.192,14.192,0,0,1-11.26-4.8,16.78,16.78,0,0,1-4.18-11.41q0-6.615,4.09-10.6T1879.98,2143.82Zm68.79,121.9a21.279,21.279,0,0,0,6.12,2.32,14.928,14.928,0,0,0,6.65,0,21.3,21.3,0,0,0,6.07-2.32,11.86,11.86,0,0,0,4.49-4.68,14.194,14.194,0,0,0,1.72-7.01,14.368,14.368,0,0,0-1.72-7.09,11.889,11.889,0,0,0-4.49-4.69,22.574,22.574,0,0,0-6.12-2.36,14.647,14.647,0,0,0-6.65-.05,20.812,20.812,0,0,0-6.07,2.37,12.207,12.207,0,0,0-4.49,4.73,14.368,14.368,0,0,0-1.72,7.09,14.172,14.172,0,0,0,1.72,7.06A11.92,11.92,0,0,0,1948.77,2265.72Zm22.64-35.25v-109.1h-25.98v109.1h25.98Z" transform="translate(-205.188 -1844.38)"/>
</svg>
