<svg height="428.6" viewBox="0 0 1731.096 428.6" width="1731.096" xmlns="http://www.w3.org/2000/svg"><path d="m643.4 3234.02q13.228 12.075 43.113 12.08 30.153 0 43.894-12.46t13.74-40.28h-30.079q0 13.425-5.92 19.66t-21.636 6.23a46.672 46.672 0 0 1 -13.347-1.61 16.2 16.2 0 0 1 -8.073-5.05 19.072 19.072 0 0 1 -3.821-7.74 47.985 47.985 0 0 1 -1.022-10.85v-65.85a48.108 48.108 0 0 1 1.022-10.85 19.1 19.1 0 0 1 3.821-7.73 16.135 16.135 0 0 1 8.073-5.05 46.672 46.672 0 0 1 13.347-1.61 52.472 52.472 0 0 1 14.262 1.61 16.391 16.391 0 0 1 8.4 5.1 19.177 19.177 0 0 1 3.875 7.84 49.905 49.905 0 0 1 1.023 11.12h30.078q0-28.14-13.473-40.33t-44.161-12.2q-30.421 0-43.381 11.77t-12.96 38.83v68.86q-.004 26.415 13.225 38.51zm153.813 11.65v-101.83h39.961v101.83h30.078v-127.61h-100.118v127.61h30.078zm99.887-7.78q10.726 9.495 27.959 9.5a43.472 43.472 0 0 0 19.636-4.46 39.248 39.248 0 0 0 14.567-12.19l3.03 14.93h25.7v-79.81q0-25.575-12.034-38.08-12.034-12.525-37.866-12.52-24.739 0-36.94 10.85t-10.806 34.38h30.078q-.108-10.26 3.879-14.31t14-4.06q11.31 0 15.459 6.86t4.147 22.21q-71.542-4.935-71.543 39.47.006 17.73 10.734 27.23zm29.209-42.03q9.857-4.08 31.607-1.82a49.244 49.244 0 0 1 -1.831 9.55 30.651 30.651 0 0 1 -3.879 8.04 16.713 16.713 0 0 1 -7.164 5.95 26.067 26.067 0 0 1 -10.935 2.1q-17.656 0-17.656-11.38-.001-8.355 9.857-12.44zm94.762 39.61q12.225 12.345 37.87 12.35 26.7 0 39.32-11.55t12.62-37.43h-30.07q-.225 11.64-5.17 16.89-4.965 5.235-16.7 5.24-11.31 0-15.67-6.22t-4.36-19.07v-28.06q0-12.75 4.79-19.02t16.86-6.27q10.98 0 15.62 5.29 4.62 5.3 4.63 16.63h30.07q0-25.995-12.18-37.39-12.2-11.385-38.79-11.38-51.075 0-51.08 52.1v29q-.001 26.535 12.239 38.89zm139.31 10.2 26.16-45.76 15.76-29v74.76h30.08v-127.83h-28.32l-24.13 42-17.59 32.55v-74.55h-30.08v127.83zm106.44-11.17q12.315 12.03 37.05 12.03 25.11 0 37.72-12.06t12.6-38.23v-29.17q0-21.015-10.57-32.92t-30.97-11.91a47.494 47.494 0 0 0 -16.07 2.72 25.621 25.621 0 0 0 -11.99 8.37v-7.42a33.488 33.488 0 0 1 .65-6.96 12.475 12.475 0 0 1 2.51-5.36 40.827 40.827 0 0 1 3.6-3.94 14.364 14.364 0 0 1 5.56-2.85c2.54-.8 4.83-1.42 6.87-1.88s2.16-.54.36-.26-1.48.28.96-.04a21.831 21.831 0 0 0 4.39-.81 92.239 92.239 0 0 0 20.77-3.57q8.34-2.64 15.65-10.69l-17.65-19.47c-.67.58-1.34 1.12-2 1.62a21.853 21.853 0 0 1 -1.89 1.28 16.456 16.456 0 0 1 -2.06 1.03q-1.17.48-1.89.75a13.989 13.989 0 0 1 -2.15.54c-.95.18-1.87.35-2.76.52s-1.79.29-2.7.37-1.49.14-1.74.17-.88.08-1.88.17-1.6.15-1.83.17q-13.545 3.2-23.05 4.98a37.075 37.075 0 0 0 -16.48 7.32 31.241 31.241 0 0 0 -10.15 14.66q-3.18 9.135-3.17 22.56v70.15q-.001 26.1 12.309 38.13zm17.77-64.56q0-10.425 5.24-15.74t15.11-5.1q9.42 0 14.3 5.05t4.88 16.33v25.03q0 24.6-20.25 24.6-10.71 0-15-6.07t-4.28-18.32zm103.1 65.63q12.21 12.255 37.9 12.25 25.665 0 37.94-12.25t12.27-38.35v-31.15q0-26.1-12.32-38.35t-37.9-12.24q-25.335 0-37.72 12.51-12.4 12.525-12.4 38.08v31.15q-.001 26.115 12.229 38.35zm17.85-67.95q0-12.87 4.36-19.07 4.365-6.225 15.68-6.22t15.72 6.22q4.425 6.21 4.42 19.07v28.06q0 12.855-4.42 19.07t-15.72 6.22q-11.31 0-15.68-6.22-4.35-6.21-4.36-19.07zm-1181.854 271.89q10.849 10.095 32.442 10.1 22.48 0 33.045-10.46t10.89-29.01a46.773 46.773 0 0 0 -1.316-12.01 31.036 31.036 0 0 0 -5.124-10.89 19.086 19.086 0 0 0 -9.178-7.02 25.358 25.358 0 0 0 11.858-10.47 29.9 29.9 0 0 0 3.76-14.9q0-18.69-11.6-28.03t-31.368-9.34q-20.2 0-31.259 8.59t-11.065 28.57h29.111q0-6.12 3.438-9.23t9.56-3.12q6.125 0 9.185 3.82t3.062 10.05a13.487 13.487 0 0 1 -3.008 8.95 10.3 10.3 0 0 1 -8.379 3.61h-14.288v24.81h13.857q6.982-.105 9.829 3.39 2.846 3.48 2.847 10.47.105 7.2-3.867 11.06a13.476 13.476 0 0 1 -9.776 3.87 14.791 14.791 0 0 1 -9.721-3.22q-3.923-3.225-3.921-10.64h-29.863q0 20.955 10.849 31.05zm105.044.38q10.725 9.495 27.958 9.5a43.472 43.472 0 0 0 19.636-4.46 39.251 39.251 0 0 0 14.568-12.19l3.029 14.93h25.7v-79.81q0-25.575-12.035-38.08-12.034-12.525-37.866-12.52-24.739 0-36.94 10.85t-10.806 34.38h30.078q-.108-10.26 3.879-14.31t14-4.06q11.31 0 15.459 6.86t4.147 22.21q-71.538-4.935-71.538 39.47 0 17.73 10.731 27.23zm29.208-42.03q9.858-4.08 31.607-1.82a49.244 49.244 0 0 1 -1.831 9.55 30.62 30.62 0 0 1 -3.879 8.04 16.71 16.71 0 0 1 -7.163 5.95 26.071 26.071 0 0 1 -10.936 2.1q-17.656 0-17.655-11.38 0-8.355 9.857-12.44zm184.9 49.81a106.889 106.889 0 0 0 25.128-2.58 48.027 48.027 0 0 0 18.31-8.59 35.847 35.847 0 0 0 11.593-16.38q3.83-10.365 3.831-25.3 0-16.965-6.743-26.91-6.743-9.93-19.232-12.84a28.936 28.936 0 0 0 14.516-13.05 41.957 41.957 0 0 0 4.906-20.46q0-22.245-13.354-32.98t-36.152-10.74h-47.707v169.83h44.908zm-14.83-76.37h15.9q10.956 0 17.08 2.73t8.379 7.79q2.256 5.055 2.256 13.75 0 14.5-6.016 19.45t-21.27 4.94h-16.325v-48.66zm.322-66.18h18.159a23.627 23.627 0 0 1 9.184 1.61 13.018 13.018 0 0 1 5.747 4.36 18.95 18.95 0 0 1 2.793 5.74 23.819 23.819 0 0 1 .86 6.56q0 8.595-4.727 14.17-4.728 5.595-13.535 5.59h-18.477v-38.03zm102.358 134.77q10.727 9.495 27.959 9.5a43.472 43.472 0 0 0 19.636-4.46 39.248 39.248 0 0 0 14.567-12.19l3.03 14.93h25.7v-79.81q0-25.575-12.034-38.08-12.035-12.525-37.866-12.52-24.74 0-36.94 10.85t-10.806 34.38h30.078q-.108-10.26 3.879-14.31t14-4.06q11.31 0 15.459 6.86t4.147 22.21q-71.543-4.935-71.543 39.47.011 17.73 10.738 27.23zm29.209-42.03q9.856-4.08 31.607-1.82a49.244 49.244 0 0 1 -1.831 9.55 30.651 30.651 0 0 1 -3.879 8.04 16.713 16.713 0 0 1 -7.164 5.95 26.067 26.067 0 0 1 -10.935 2.1q-17.657 0-17.656-11.38.004-8.355 9.86-12.44zm236.246 49.81v-127.83h-30.074v102.05h-30.723v-102.05h-30.078v102.05h-30.723v-102.05h-30.078v127.83h151.68zm34.442-11.81q12.312 12.24 37.9 12.24 25.976 0 38.585-9.93 12.6-9.945 12.6-30.35h-30.5q0 13.965-20.249 13.96a32.178 32.178 0 0 1 -8.508-.96 16.075 16.075 0 0 1 -6.355-3.53 15.279 15.279 0 0 1 -4.308-7.6 47.975 47.975 0 0 1 -1.4-12.63v-3.31h71.325v-25.68q0-26.1-12.55-38.35t-38.626-12.24q-25.163 0-37.69 12.94t-12.528 37.65v29.44q-.005 26.1 12.308 38.35zm18.572-77.42a23.5 23.5 0 0 1 2.963-7.77 12.468 12.468 0 0 1 6.407-5.22 30.267 30.267 0 0 1 10.826-1.65q12.168 0 16.207 5.91t4.04 19.22h-41.25a57.051 57.051 0 0 1 .811-10.49zm177.728 88-5.09 18.28a14.688 14.688 0 0 1 -1.41 3.62 16.589 16.589 0 0 1 -1.68 2.49 4.9 4.9 0 0 1 -2.15 1.41 15.444 15.444 0 0 1 -2.2.65 9.41 9.41 0 0 1 -2.67-.06c-1.23-.14-2.1-.27-2.63-.38s-1.48-.34-2.89-.71-2.31-.58-2.72-.65l-4.41 22.56q12.06 4.83 21.4 5.05a21.781 21.781 0 0 0 16.3-6.63q6.96-6.855 10.88-21.6l7.37-24.91.67.34 37.08-127.99h-30.08l-10.83 38.92q-5.49 21.6-10.42 54.34a478.41 478.41 0 0 0 -10.3-54.46l-11.85-38.8h-30.07zm90.9-48.5q10.11 11.925 30.46 11.92 17.67 0 26.99-11.19v49h30.08v-127.83h-30.08v41.72q0 21.45-19.07 21.44-9.42-.21-13.92-5.22t-4.5-16.44v-41.5h-30.08v44.9q.004 21.27 10.124 33.2zm117.59 41.95q10.725 9.495 27.96 9.5a43.489 43.489 0 0 0 19.64-4.46 39.217 39.217 0 0 0 14.56-12.19l3.03 14.93h25.7v-79.81q0-25.575-12.03-38.08-12.03-12.525-37.87-12.52-24.735 0-36.94 10.85t-10.8 34.38h30.08q-.12-10.26 3.88-14.31 3.975-4.065 14-4.06 11.31 0 15.46 6.86t4.15 22.21q-71.55-4.935-71.55 39.47.004 17.73 10.734 27.23zm29.21-42.03q9.855-4.08 31.61-1.82a49.4 49.4 0 0 1 -1.83 9.55 31 31 0 0 1 -3.88 8.04 16.777 16.777 0 0 1 -7.17 5.95 26.055 26.055 0 0 1 -10.93 2.1q-17.655 0-17.66-11.38.004-8.355 9.864-12.44zm94.76 39.61q12.225 12.345 37.88 12.35 26.685 0 39.31-11.55t12.63-37.43h-30.08q-.225 11.64-5.17 16.89-4.965 5.235-16.69 5.24-11.31 0-15.68-6.22-4.35-6.21-4.36-19.07v-28.06q0-12.75 4.79-19.02t16.86-6.27q10.98 0 15.62 5.29 4.62 5.3 4.63 16.63h30.08q0-25.995-12.19-37.39t-38.79-11.38q-51.075 0-51.08 52.1v29q.004 26.535 12.244 38.89zm128.59-91.63v101.83h30.08v-101.83h28.79v-25.78h-87.33v25.78zm101.49 101.83 26.16-45.76 15.76-29v74.76h30.08v-127.83h-28.32l-24.13 42-17.59 32.55v-74.55h-30.08v127.83zm107.2-11.81q12.3 12.24 37.9 12.24 25.98 0 38.58-9.93 12.615-9.945 12.61-30.35h-30.51q0 13.965-20.25 13.96a32.241 32.241 0 0 1 -8.51-.96 16.118 16.118 0 0 1 -6.35-3.53 15.258 15.258 0 0 1 -4.31-7.6 48.1 48.1 0 0 1 -1.4-12.63v-3.31h71.33v-25.68q0-26.1-12.55-38.35t-38.64-12.24q-25.155 0-37.69 12.94t-12.53 37.65v29.44q.004 26.1 12.324 38.35zm18.57-77.42a23.449 23.449 0 0 1 2.96-7.77 12.443 12.443 0 0 1 6.41-5.22 30.213 30.213 0 0 1 10.82-1.65q12.165 0 16.21 5.91t4.04 19.22h-41.25a56.845 56.845 0 0 1 .814-10.49zm99.73 86.98a25.458 25.458 0 0 0 7.08 2.68 17.6 17.6 0 0 0 7.71 0 25.37 25.37 0 0 0 7.03-2.68 13.744 13.744 0 0 0 5.19-5.43 16.441 16.441 0 0 0 2-8.11 16.675 16.675 0 0 0 -2-8.22 13.716 13.716 0 0 0 -5.19-5.42 26.4 26.4 0 0 0 -7.08-2.74 16.878 16.878 0 0 0 -7.71-.05 24.264 24.264 0 0 0 -7.03 2.73 14.159 14.159 0 0 0 -5.19 5.48 16.568 16.568 0 0 0 -2 8.22 16.3 16.3 0 0 0 2 8.17 13.842 13.842 0 0 0 5.194 5.37zm26.22-40.82v-126.33h-30.08v126.33z" fill="#d20536" fill-rule="evenodd" transform="translate(-212.844 -3070.09)"/></svg>