<svg height="566.16" viewBox="0 0 1429.061 566.16" width="1429.061" xmlns="http://www.w3.org/2000/svg"><path d="m368.167 2529.27v-83.71h31.921v83.71h11.7v-94.87h-55.561v94.87zm71.882 24.18v-29.88a13.539 13.539 0 0 0 6.883 4.9 36.144 36.144 0 0 0 10.492 1.28q11.712 0 18.019-6.84t6.307-21.06v-18.9a38.052 38.052 0 0 0 -1.742-12.24 18.492 18.492 0 0 0 -5.045-8.04 20.541 20.541 0 0 0 -7.628-4.29 33.275 33.275 0 0 0 -9.911-1.35 23.706 23.706 0 0 0 -11.323 2.61 13 13 0 0 0 -6.517 7.23l-1.455-9.48h-9.78v96.06zm0-66.68q0-10.17 3.848-14.34 3.848-4.185 11.783-4.48 7.576 0 10.973 3.18t3.4 11.73v18.83q0 9.315-3.578 13.11-3.577 3.78-11.632 3.79-8 0-11.394-3.61t-3.4-12.69zm55.562 30.98a17.223 17.223 0 0 0 2.19 4.62 14.244 14.244 0 0 0 3.81 3.93 19.055 19.055 0 0 0 5.97 2.58 32.62 32.62 0 0 0 8.43.99 21.544 21.544 0 0 0 11.258-3.03 17.449 17.449 0 0 0 7.115-7.29l1.008 9.72h10.44v-48.54q0-12.66-6.375-18.36t-18.646-5.7q-11.7 0-17.58 5.52t-5.52 17.22h11.46q-.06-6.84 2.82-9.45t8.46-2.61q7.62 0 10.65 3.39t3.031 9.99v7.02a148.885 148.885 0 0 0 -17.341 1.08q-11.1 1.56-17.07 7.98t-5.07 15.9a29.494 29.494 0 0 0 .96 5.04zm22.14-19.08q5.34-1.2 16.621-1.2a39.365 39.365 0 0 1 -1.02 8.34 22.434 22.434 0 0 1 -2.791 6.66 12.432 12.432 0 0 1 -5.25 4.62 18.36 18.36 0 0 1 -8.04 1.62 14.426 14.426 0 0 1 -7.44-1.77 6.928 6.928 0 0 1 -3.36-5.73q-1.2-9.84 11.28-12.54zm42.425 21.39a12.831 12.831 0 0 0 4.9 6.33 20.454 20.454 0 0 0 7.518 3.03 56.589 56.589 0 0 0 10.5.81 39.3 39.3 0 0 0 10.17-1.21 24.144 24.144 0 0 0 8.01-3.7 16.108 16.108 0 0 0 5.37-6.8 24.821 24.821 0 0 0 1.89-10.07 22.4 22.4 0 0 0 -2.31-10.77c-1.54-2.82-4.21-4.88-8.01-6.15a11.656 11.656 0 0 0 6.87-5.67 19.75 19.75 0 0 0 2.13-9.33 20.562 20.562 0 0 0 -1.92-9.18 15.116 15.116 0 0 0 -5.31-6.12 24.687 24.687 0 0 0 -7.56-3.27 37.448 37.448 0 0 0 -9.15-1.05q-23.522 0-23.521 19.92h11.461q0-5.4 3.03-7.5t8.85-2.1q12.42 0 12.42 9.6 0 5.28-2.85 7.47t-8.31 2.19h-9.36v10.32h9.335q6.7 0 9.6 2.47 2.9 2.49 2.9 9.17 0 5.79-3.823 8.62a15.916 15.916 0 0 1 -9.737 2.84 39.816 39.816 0 0 1 -5.52-.3 12.039 12.039 0 0 1 -3.93-1.3 5.743 5.743 0 0 1 -2.7-3.15 15.986 15.986 0 0 1 -.81-5.57h-11.7a29.784 29.784 0 0 0 1.567 10.47zm55.138 22.47h11.16v-13.38h43.926v13.38h11.16v-24.3h-8.46v-60.48h-41.768l-.778 27.6q0 11.925-1.808 18.98-2.891 9.345-8.433 13.9h-5v24.3zm24.386-35.26a90.167 90.167 0 0 0 2.554-21.9l.361-16.7h19.02v49.56h-27.635a30.052 30.052 0 0 0 5.7-10.96zm62.376 22v-32.1h29.7v32.1h11.7v-71.4h-11.7v28.38h-29.7v-28.38h-11.7v71.4zm60.451-5.13q6.211 6.33 20.731 6.33 14.311 0 20.626-6.36t6.315-21v-20.52q0-13.74-6.961-19.89t-19.98-6.15q-13.022 0-19.981 6.15t-6.96 19.89v20.52q0 14.7 6.21 21.03zm5.491-41.67a27.4 27.4 0 0 1 .96-7.92 9.339 9.339 0 0 1 3.06-4.77 12.142 12.142 0 0 1 4.71-2.28 33.95 33.95 0 0 1 13.02 0 12.149 12.149 0 0 1 4.71 2.28 9.352 9.352 0 0 1 3.06 4.77 27.435 27.435 0 0 1 .96 7.92v20.52q0 9.6-3.48 13.38t-11.76 3.78q-8.042 0-11.64-3.81t-3.6-13.35zm80.072 46.8q25.709 0 25.71-21.72a18.078 18.078 0 0 0 -3.136-10.64 17.608 17.608 0 0 0 -8.924-6.51 12.831 12.831 0 0 0 6.463-5.44 18.564 18.564 0 0 0 1.817-8.81q0-9.045-6.233-13.73t-15.639-4.67h-25.109v71.52zm-13.591-61.2h13.707a11.346 11.346 0 0 1 7.51 2.37 8.435 8.435 0 0 1 2.844 6.87 8.6 8.6 0 0 1 -2.694 6.77 10.623 10.623 0 0 1 -7.361 2.41h-14.005v-18.42zm.24 28.14h13.891q6.4 0 9.937 2.55t3.533 8.61q0 5.64-3.054 8.43t-10.536 2.79h-13.771zm50.761 21.54a17.258 17.258 0 0 0 2.191 4.62 14.244 14.244 0 0 0 3.81 3.93 19.055 19.055 0 0 0 5.97 2.58 32.62 32.62 0 0 0 8.43.99 21.544 21.544 0 0 0 11.258-3.03 17.455 17.455 0 0 0 7.115-7.29l1.008 9.72h10.44v-48.54q0-12.66-6.375-18.36t-18.646-5.7q-11.7 0-17.58 5.52t-5.52 17.22h11.46q-.06-6.84 2.82-9.45t8.46-2.61q7.62 0 10.65 3.39t3.03 9.99v7.02a148.881 148.881 0 0 0 -17.34 1.08q-11.1 1.56-17.07 7.98t-5.071 15.9a29.689 29.689 0 0 0 .96 5.04zm22.141-19.08q5.34-1.2 16.62-1.2a39.3 39.3 0 0 1 -1.02 8.34 22.458 22.458 0 0 1 -2.79 6.66 12.432 12.432 0 0 1 -5.25 4.62 18.36 18.36 0 0 1 -8.04 1.62 14.426 14.426 0 0 1 -7.44-1.77 6.928 6.928 0 0 1 -3.36-5.73q-1.2-9.84 11.28-12.54zm54.841 30.6v-32.1h29.7v32.1h11.7v-71.4h-11.7v28.38h-29.7v-28.38h-11.7v71.4zm67.858 0 29.76-51.96v51.96h11.71v-71.4h-12.78l-29.59 51.6v-51.6h-11.7v71.4zm60.66-5.22q6.045 5.94 20.44 5.94 13.695 0 20-5.46t6.31-16.14h-11.28c0 3.64-1.22 6.33-3.64 8.07s-6.22 2.61-11.39 2.61q-8.175 0-11.61-3.22t-3.42-12.41v-5.37h41.58v-15.36q0-25.68-26.55-25.68-12.825 0-19.66 6.06t-6.83 19.62v21q0 14.4 6.05 20.34zm5.41-41.43a25.576 25.576 0 0 1 .99-7.73 9.248 9.248 0 0 1 3.09-4.68 12.658 12.658 0 0 1 4.66-2.24 26.818 26.818 0 0 1 6.29-.62 27.571 27.571 0 0 1 6.34.62 12.929 12.929 0 0 1 4.78 2.27 9.593 9.593 0 0 1 3.21 4.71 23.682 23.682 0 0 1 1.06 7.67v5.13h-30.42zm79.5 60.39h11.16v-13.74h50.22v13.74h11.46v-24.66h-8.52v-84.07h-46.38l-1.44 50.72c-.08 3.56-.25 6.66-.51 9.28a68.6 68.6 0 0 1 -1.47 8.62 30.58 30.58 0 0 1 -3.36 8.6 26.425 26.425 0 0 1 -5.76 6.85h-5.4zm24.83-35.05a52.594 52.594 0 0 0 2.66-11.04q.585-5.07.71-11.98l.9-39.74h23.04v73.15h-32.98a33.407 33.407 0 0 0 5.67-10.39zm69.79 21.31v-32.1h29.7v32.1h11.7v-71.4h-11.7v28.38h-29.7v-28.38h-11.7v71.4zm64.86 0 15.18-26.4h10.5v26.4h11.94v-71.4h-26.43a33.8 33.8 0 0 0 -8.77 1.05 20.348 20.348 0 0 0 -6.94 3.3 14.6 14.6 0 0 0 -4.69 6.06 22.608 22.608 0 0 0 -1.65 9.03v4.92q0 15.72 14.04 19.38l-16.86 27.66zm.84-51.48q0-5.7 2.46-7.47t8.58-1.77h13.8v23.64h-13.8q-6 0-8.52-2.13t-2.52-8.07zm93.24 51.48v-60.6h26.65v-10.92h-38.11v71.52zm41.26-5.13q6.21 6.33 20.73 6.33 14.31 0 20.62-6.36t6.32-21v-20.52q0-13.74-6.96-19.89t-19.98-6.15q-13.02 0-19.98 6.15-6.975 6.15-6.96 19.89v20.52q0 14.7 6.21 21.03zm5.49-41.67a27.435 27.435 0 0 1 .96-7.92 9.227 9.227 0 0 1 3.06-4.77 12.149 12.149 0 0 1 4.71-2.28 33.95 33.95 0 0 1 13.02 0 12.149 12.149 0 0 1 4.71 2.28 9.352 9.352 0 0 1 3.06 4.77 27.435 27.435 0 0 1 .96 7.92v20.52q0 9.6-3.48 13.38t-11.76 3.78q-8.04 0-11.64-3.81t-3.6-13.35zm68.04 70.98v-29.88a13.54 13.54 0 0 0 6.88 4.9 36.148 36.148 0 0 0 10.49 1.28q11.715 0 18.02-6.84t6.31-21.06v-18.9a38.083 38.083 0 0 0 -1.74-12.24 18.6 18.6 0 0 0 -5.05-8.04 20.471 20.471 0 0 0 -7.63-4.29 33.221 33.221 0 0 0 -9.91-1.35 23.7 23.7 0 0 0 -11.32 2.61 13.013 13.013 0 0 0 -6.52 7.23l-1.45-9.48h-9.78v96.06zm0-66.68q0-10.17 3.84-14.34 3.855-4.185 11.79-4.48 7.575 0 10.97 3.18t3.4 11.73v18.83q0 9.315-3.58 13.11-3.57 3.78-11.63 3.79-7.995 0-11.4-3.61-3.39-3.615-3.39-12.69zm61.53 37.37q6.21 6.33 20.73 6.33 14.31 0 20.63-6.36t6.31-21v-20.52q0-13.74-6.96-19.89t-19.98-6.15q-13.02 0-19.98 6.15t-6.96 19.89v20.52q0 14.7 6.21 21.03zm5.49-41.67a27.435 27.435 0 0 1 .96-7.92 9.352 9.352 0 0 1 3.06-4.77 12.149 12.149 0 0 1 4.71-2.28 33.95 33.95 0 0 1 13.02 0 12.149 12.149 0 0 1 4.71 2.28 9.352 9.352 0 0 1 3.06 4.77 27.435 27.435 0 0 1 .96 7.92v20.52q0 9.6-3.48 13.38t-11.76 3.78q-8.04 0-11.64-3.81t-3.6-13.35zm49.62 60.06h11.16v-13.38h43.92v13.38h11.16v-24.3h-8.46v-60.48h-41.76l-.78 27.6q0 11.925-1.81 18.98-2.88 9.345-8.43 13.9h-5zm24.39-35.26a90.318 90.318 0 0 0 2.55-21.9l.36-16.7h19.02v49.56h-27.63a30.092 30.092 0 0 0 5.7-10.96zm49.77 10.48a17.253 17.253 0 0 0 2.19 4.62 14.258 14.258 0 0 0 3.81 3.93 19.066 19.066 0 0 0 5.97 2.58 32.62 32.62 0 0 0 8.43.99 21.549 21.549 0 0 0 11.26-3.03 17.53 17.53 0 0 0 7.12-7.29l1 9.72h10.44v-48.54q0-12.66-6.37-18.36t-18.65-5.7q-11.7 0-17.58 5.52t-5.52 17.22h11.46q-.06-6.84 2.82-9.45t8.46-2.61q7.62 0 10.65 3.39t3.03 9.99v7.02a148.881 148.881 0 0 0 -17.34 1.08q-11.1 1.56-17.07 7.98t-5.07 15.9a29.689 29.689 0 0 0 .96 5.04zm22.14-19.08q5.34-1.2 16.62-1.2a39.3 39.3 0 0 1 -1.02 8.34 22.458 22.458 0 0 1 -2.79 6.66 12.432 12.432 0 0 1 -5.25 4.62 18.36 18.36 0 0 1 -8.04 1.62 14.428 14.428 0 0 1 -7.44-1.77 6.93 6.93 0 0 1 -3.36-5.73q-1.2-9.84 11.28-12.54zm-1209.448 178.06v-44.64l-1.468-26.01 17.3 53.23 5.149-.01 17.359-53.21-1.5 26.01v44.63h11.7v-94.87h-13.38l-16.743 52.08-16.678-52.08h-13.44v94.87h11.7zm69.331-5.13q6.212 6.33 20.731 6.33 14.312 0 20.626-6.36t6.315-21v-20.52q0-13.74-6.96-19.89t-19.981-6.16q-13.021 0-19.98 6.16t-6.961 19.89v20.52q0 14.7 6.21 21.03zm5.491-41.67a27.4 27.4 0 0 1 .96-7.92 9.339 9.339 0 0 1 3.06-4.77 12.142 12.142 0 0 1 4.71-2.28 33.95 33.95 0 0 1 13.02 0 12.149 12.149 0 0 1 4.71 2.28 9.352 9.352 0 0 1 3.06 4.77 27.435 27.435 0 0 1 .96 7.92v20.52q0 9.6-3.48 13.38t-11.76 3.78q-8.041 0-11.64-3.81t-3.6-13.35zm60.781 41.61q6.42 6.39 20.521 6.39t20.159-5.73q6.058-5.73 6.241-19.83h-11.16a25.09 25.09 0 0 1 -1.02 7.44 8.629 8.629 0 0 1 -3 4.38 11.775 11.775 0 0 1 -4.62 2.04 33.164 33.164 0 0 1 -6.6.54 25.9 25.9 0 0 1 -6.63-.72 11.511 11.511 0 0 1 -4.681-2.49 10.356 10.356 0 0 1 -2.97-4.96 28.32 28.32 0 0 1 -.96-8v-20.35a26.973 26.973 0 0 1 .96-7.87 9.229 9.229 0 0 1 3.03-4.7 11.459 11.459 0 0 1 4.681-2.19 39.36 39.36 0 0 1 12.87-.06 12.454 12.454 0 0 1 4.59 1.92 8.566 8.566 0 0 1 3.12 4.1 21.644 21.644 0 0 1 1.23 6.82l11.16-.12a35.183 35.183 0 0 0 -2.109-11.56 17.127 17.127 0 0 0 -5.365-7.47 22.3 22.3 0 0 0 -8.077-3.91 43.156 43.156 0 0 0 -10.849-1.21q-13.021 0-19.981 6.22t-6.96 19.95v20.4q0 14.58 6.42 20.97zm70.922 5.19v-31.92h6.3l23.1 31.92h13.86l-26.4-36.34a18.8 18.8 0 0 0 5.491-5.71 39.83 39.83 0 0 0 3.6-6.97c.859-2.22 1.77-4.35 2.73-6.37a10.686 10.686 0 0 1 3.9-4.61 8.525 8.525 0 0 1 6.12-.96l.24-10.69a22.457 22.457 0 0 0 -9.18.85 13.951 13.951 0 0 0 -6.15 3.87 28.35 28.35 0 0 0 -3.9 5.73q-1.65 3.18-3 6.47a61.565 61.565 0 0 1 -2.85 6.02 13.049 13.049 0 0 1 -3.99 4.48 10.062 10.062 0 0 1 -5.91 1.75h-3.96v-28.92h-11.7v71.4h11.7zm75.632 0q25.71 0 25.711-21.72a18.086 18.086 0 0 0 -3.136-10.64 17.614 17.614 0 0 0 -8.925-6.51 12.838 12.838 0 0 0 6.464-5.44 18.565 18.565 0 0 0 1.816-8.81q0-9.045-6.232-13.73t-15.64-4.68h-25.109v71.53zm-13.59-61.2h13.706a11.349 11.349 0 0 1 7.511 2.37 8.437 8.437 0 0 1 2.843 6.87 8.6 8.6 0 0 1 -2.693 6.77 10.628 10.628 0 0 1 -7.362 2.41h-14v-18.42zm.24 28.14h13.89q6.405 0 9.938 2.55t3.532 8.61q0 5.64-3.053 8.43t-10.537 2.79h-13.77zm75.991 33.06q14.237 0 19.914-5.49t5.677-19.11q0-13.2-6.471-18.93t-19.17-5.73h-12.58v-22.14h-11.7v71.4zm-12.63-38.94h12.569q8.238 0 11.095 3.15t2.857 11.19q0 7.62-2.947 10.77t-11 3.15h-12.574zm62.522 38.94v-71.4h-11.7v71.4zm50.221-5.19q6.42 6.39 20.517 6.39t20.16-5.73q6.06-5.73 6.24-19.83h-11.16a25.057 25.057 0 0 1 -1.02 7.44 8.623 8.623 0 0 1 -3 4.38 11.768 11.768 0 0 1 -4.62 2.04 33.157 33.157 0 0 1 -6.6.54 25.9 25.9 0 0 1 -6.63-.72 11.513 11.513 0 0 1 -4.68-2.49 10.352 10.352 0 0 1 -2.967-4.96 28.32 28.32 0 0 1 -.96-8v-20.35a26.973 26.973 0 0 1 .96-7.87 9.225 9.225 0 0 1 3.027-4.7 11.461 11.461 0 0 1 4.68-2.19 39.36 39.36 0 0 1 12.87-.06 12.454 12.454 0 0 1 4.59 1.92 8.566 8.566 0 0 1 3.12 4.1 21.616 21.616 0 0 1 1.23 6.82l11.16-.12a35.027 35.027 0 0 0 -2.11-11.56 17.078 17.078 0 0 0 -5.36-7.47 22.27 22.27 0 0 0 -8.08-3.91 43.125 43.125 0 0 0 -10.85-1.21q-13.02 0-19.977 6.22t-6.96 19.95v20.4q0 14.58 6.42 20.97zm64.647.06q6.21 6.33 20.74 6.33 14.31 0 20.62-6.36t6.32-21v-20.52q0-13.74-6.96-19.89t-19.98-6.16q-13.035 0-19.99 6.16t-6.96 19.89v20.52q0 14.7 6.21 21.03zm5.49-41.67a27.435 27.435 0 0 1 .96-7.92 9.352 9.352 0 0 1 3.06-4.77 12.191 12.191 0 0 1 4.72-2.28 33.95 33.95 0 0 1 13.02 0 12.218 12.218 0 0 1 4.71 2.28 9.352 9.352 0 0 1 3.06 4.77 27.435 27.435 0 0 1 .96 7.92v20.52c0 6.4-1.17 10.86-3.48 13.38s-6.24 3.78-11.76 3.78c-5.37 0-9.24-1.27-11.65-3.81s-3.6-6.99-3.6-13.35zm60.79 41.61q6.42 6.39 20.52 6.39t20.16-5.73q6.06-5.73 6.24-19.83h-11.16a25.057 25.057 0 0 1 -1.02 7.44 8.623 8.623 0 0 1 -3 4.38 11.768 11.768 0 0 1 -4.62 2.04 33.157 33.157 0 0 1 -6.6.54 25.9 25.9 0 0 1 -6.63-.72 11.513 11.513 0 0 1 -4.68-2.49 10.356 10.356 0 0 1 -2.97-4.96 28.32 28.32 0 0 1 -.96-8v-20.35a26.973 26.973 0 0 1 .96-7.87 9.229 9.229 0 0 1 3.03-4.7 11.461 11.461 0 0 1 4.68-2.19 39.36 39.36 0 0 1 12.87-.06 12.454 12.454 0 0 1 4.59 1.92 8.566 8.566 0 0 1 3.12 4.1 21.616 21.616 0 0 1 1.23 6.82l11.16-.12a35.286 35.286 0 0 0 -2.11-11.56 17.175 17.175 0 0 0 -5.37-7.47 22.3 22.3 0 0 0 -8.07-3.91 43.181 43.181 0 0 0 -10.85-1.21q-13.02 0-19.98 6.22t-6.96 19.95v20.4q0 14.58 6.42 20.97zm71.22-55.29v60.48h11.7v-60.48h18.3v-10.92h-48.3v10.92zm43.29 55.35q6.21 6.33 20.73 6.33 14.31 0 20.63-6.36t6.31-21v-20.52q0-13.74-6.96-19.89t-19.98-6.16q-13.02 0-19.98 6.16t-6.96 19.89v20.52q0 14.7 6.21 21.03zm5.49-41.67a27.435 27.435 0 0 1 .96-7.92 9.352 9.352 0 0 1 3.06-4.77 12.149 12.149 0 0 1 4.71-2.28 33.95 33.95 0 0 1 13.02 0 12.149 12.149 0 0 1 4.71 2.28 9.352 9.352 0 0 1 3.06 4.77 27.435 27.435 0 0 1 .96 7.92v20.52q0 9.6-3.48 13.38t-11.76 3.78q-8.04 0-11.64-3.81t-3.6-13.35zm64.98 46.8 15.18-26.4h10.5v26.4h11.94v-71.4h-26.43a33.741 33.741 0 0 0 -8.77 1.05 20.348 20.348 0 0 0 -6.94 3.3 14.6 14.6 0 0 0 -4.69 6.06 22.608 22.608 0 0 0 -1.65 9.03v4.92q0 15.72 14.04 19.38l-16.86 27.66zm.84-51.48q0-5.7 2.46-7.47t8.58-1.77h13.8v23.64h-13.8q-6 0-8.52-2.13t-2.52-8.07zm53.82 50.82a23.46 23.46 0 0 0 5.74-2.46 17.422 17.422 0 0 0 4.39-3.93 31.953 31.953 0 0 0 3.25-4.83 29.561 29.561 0 0 0 2.3-5.88q.99-3.48 1.53-6.33a64.1 64.1 0 0 0 .88-6.96q.33-4.11.45-6.99t.24-7.08l.42-15.36h19.92v60.48h11.7v-71.4h-43.38l-.36 26.16v2.34q0 2.76-.06 5.37t-.33 5.85a53.955 53.955 0 0 1 -.81 5.97 34.039 34.039 0 0 1 -1.56 5.43 18.035 18.035 0 0 1 -2.49 4.62 11.791 11.791 0 0 1 -3.78 3.18 12.405 12.405 0 0 1 -5.25 1.44v11.4a27.2 27.2 0 0 0 7.2-1.02zm69.99-4.47q6.21 6.33 20.73 6.33 14.325 0 20.63-6.36t6.32-21v-20.52q0-13.74-6.96-19.89-6.975-6.15-19.99-6.16t-19.98 6.16q-6.96 6.15-6.96 19.89v20.52q0 14.7 6.21 21.03zm5.49-41.67a27.435 27.435 0 0 1 .96-7.92 9.352 9.352 0 0 1 3.06-4.77 12.149 12.149 0 0 1 4.71-2.28 33.95 33.95 0 0 1 13.02 0 12.191 12.191 0 0 1 4.72 2.28 9.481 9.481 0 0 1 3.06 4.77 27.789 27.789 0 0 1 .96 7.92v20.52c0 6.4-1.17 10.86-3.48 13.38q-3.495 3.78-11.77 3.78-8.04 0-11.64-3.81t-3.6-13.35zm60.79 41.61q6.42 6.39 20.52 6.39t20.16-5.73q6.045-5.73 6.24-19.83h-11.16a25.057 25.057 0 0 1 -1.02 7.44 8.623 8.623 0 0 1 -3 4.38 11.768 11.768 0 0 1 -4.62 2.04 33.157 33.157 0 0 1 -6.6.54 25.9 25.9 0 0 1 -6.63-.72 11.513 11.513 0 0 1 -4.68-2.49 10.356 10.356 0 0 1 -2.97-4.96 28.32 28.32 0 0 1 -.96-8v-20.35a26.973 26.973 0 0 1 .96-7.87 9.229 9.229 0 0 1 3.03-4.7 11.461 11.461 0 0 1 4.68-2.19 39.36 39.36 0 0 1 12.87-.06 12.454 12.454 0 0 1 4.59 1.92 8.566 8.566 0 0 1 3.12 4.1 21.616 21.616 0 0 1 1.23 6.82l11.16-.12a35.286 35.286 0 0 0 -2.11-11.56 17.175 17.175 0 0 0 -5.37-7.47 22.3 22.3 0 0 0 -8.07-3.91 43.181 43.181 0 0 0 -10.85-1.21q-13.02 0-19.98 6.22t-6.96 19.95v20.4q0 14.58 6.42 20.97zm84.03 5.19q14.235 0 19.91-5.49t5.68-19.11q0-13.2-6.47-18.93t-19.17-5.73h-12.58v-22.14h-11.7v71.4zm-12.63-38.94h12.57q8.235 0 11.09 3.15t2.86 11.19q0 7.62-2.95 10.77t-11 3.15h-12.57zm-1163.311 180.34q6.872 7.14 21.152 7.14 14.067 0 20.953-7.26t6.885-22.68a48.443 48.443 0 0 0 -1.294-12.21 20.115 20.115 0 0 0 -3.559-7.64 21.348 21.348 0 0 0 -6.088-4.94q8.841-6.18 8.841-17.82 0-10.92-6.673-18t-19.065-7.08q-12.426 0-19.685 6.6t-7.258 18.24q0 12.735 9.675 18.55a18.763 18.763 0 0 0 -8.1 8.66q-2.66 5.655-2.659 16.24.004 15.06 6.875 22.2zm9.216-37.11q3.306-4.95 11.844-5.13 8.476.18 11.813 5.1t3.337 14.58q0 9.42-3.307 13.98t-11.843 4.56q-8.538 0-11.844-4.56t-3.307-13.98q.002-9.6 3.307-14.55zm.9-38.3q3.727-3.675 10.944-3.68 13.889 0 13.889 13.8 0 12.72-14.009 12.73-6.555 0-10.553-3.38a11.579 11.579 0 0 1 -4-9.35q.002-6.45 3.73-10.12zm95.993 81.47 29.763-51.96v51.96h11.7v-71.41h-12.778l-29.583 51.61v-51.61h-11.7v71.41h12.6zm91.873-32.46q6.19 6.18 17.308 6.18a49.5 49.5 0 0 0 12.636-1.54 53.7 53.7 0 0 1 -10.726 13.76 126.09 126.09 0 0 1 -16.18 13.22l.242.84h15.884a67.724 67.724 0 0 0 20.587-21.86 56.669 56.669 0 0 0 7.881-29.47v-17.45q0-14.7-6.209-21.05t-20.7-6.36q-14.493 0-20.7 6.36t-6.209 21.04v17.45q-.002 12.705 6.187 18.88zm5.511-36.44q0-9.375 3.5-12.75t11.708-3.38q8.2 0 11.707 3.38t3.5 12.75v17.37q0 8.6-3.533 11.76t-11.677 3.17q-8.145 0-11.678-3.17t-3.533-11.76v-17.37zm91.984 63.71q6.418 6.39 20.52 6.39t20.16-5.73q6.058-5.73 6.241-19.83h-11.16a25.123 25.123 0 0 1 -1.02 7.44 8.631 8.631 0 0 1 -3 4.38 11.768 11.768 0 0 1 -4.62 2.04 33.157 33.157 0 0 1 -6.6.54 25.9 25.9 0 0 1 -6.63-.72 11.513 11.513 0 0 1 -4.68-2.49 10.326 10.326 0 0 1 -2.97-4.97 28.16 28.16 0 0 1 -.96-7.99v-20.35a26.939 26.939 0 0 1 .96-7.87 9.223 9.223 0 0 1 3.03-4.7 11.461 11.461 0 0 1 4.68-2.19 39.36 39.36 0 0 1 12.87-.06 12.454 12.454 0 0 1 4.59 1.92 8.526 8.526 0 0 1 3.121 4.1 21.644 21.644 0 0 1 1.23 6.82l11.16-.12a35.182 35.182 0 0 0 -2.11-11.56 17.125 17.125 0 0 0 -5.364-7.47 22.308 22.308 0 0 0 -8.078-3.91 43.145 43.145 0 0 0 -10.849-1.21q-13.02 0-19.98 6.21-6.961 6.225-6.961 19.96v20.4q-.001 14.58 6.42 20.97zm64.914-.03q6.053 5.94 20.438 5.94 13.7 0 20-5.46t6.307-16.14h-11.28q0 5.46-3.637 8.07t-11.393 2.61q-8.177 0-11.6-3.22t-3.427-12.41v-5.37h41.581v-15.36q0-25.68-26.55-25.69-12.827 0-19.659 6.06-6.833 6.075-6.832 19.63v21q-.001 14.4 6.052 20.34zm5.407-41.43a25.507 25.507 0 0 1 .992-7.73 9.244 9.244 0 0 1 3.1-4.68 12.423 12.423 0 0 1 4.66-2.24 26.734 26.734 0 0 1 6.282-.62 27.53 27.53 0 0 1 6.342.62 12.86 12.86 0 0 1 4.781 2.27 9.6 9.6 0 0 1 3.216 4.71 23.923 23.923 0 0 1 1.052 7.67v5.13h-30.425zm67.022 46.65v-32.1h29.7v32.1h11.7v-71.41h-11.7v28.39h-29.7v-28.39h-11.7v71.41zm67.022-60.48v60.48h11.7v-60.48h18.3v-10.93h-48.3v10.93zm47.7 60.48 15.18-26.4h10.5v26.4h11.94v-71.41h-26.432a34.245 34.245 0 0 0 -8.771 1.05 20.62 20.62 0 0 0 -6.939 3.3 14.593 14.593 0 0 0 -4.685 6.07 22.573 22.573 0 0 0 -1.652 9.03v4.92q0 15.72 14.04 19.38l-16.86 27.66h13.68zm.84-51.48q0-5.7 2.46-7.47t8.58-1.77h13.8v23.64h-13.8q-6 0-8.52-2.13t-2.52-8.07zm55.768 46.44q6.21 6.24 20.73 6.24t20.67-6.24q6.15-6.225 6.15-20.98v-17.09q0-13.785-5.95-20.71t-19.25-6.93a24.9 24.9 0 0 0 -9.57 1.89 16.238 16.238 0 0 0 -7.29 5.69q0-4.32.1-6.34a37.551 37.551 0 0 1 .55-4.69 7.586 7.586 0 0 1 1.44-3.78 15.2 15.2 0 0 1 2.85-2.36 10.313 10.313 0 0 1 4.69-1.61 24.281 24.281 0 0 0 6.44-1.87c.44-.01 1.6-.05 3.49-.1s3.81-.11 5.77-.15 2.94-.05 2.94-.05.07-.11.21-.32a4.769 4.769 0 0 1 1.86-.89 9.829 9.829 0 0 0 2.62-1.28c.65-.46 1.41-1.06 2.29-1.78a22.11 22.11 0 0 0 2.53-2.42l-7.17-8.04a11.834 11.834 0 0 1 -2.92 2.01 16.664 16.664 0 0 1 -4.1 1.29c-1.63.32-2.89.52-3.77.61s-2.29.24-4.22.43q-5.685 1.14-10.07 1.86a19.451 19.451 0 0 0 -7.39 2.64 20.077 20.077 0 0 0 -4.92 4.32 18.113 18.113 0 0 0 -3.03 5.97 37.737 37.737 0 0 0 -1.5 7.44c-.26 2.58-.39 5.66-.39 9.21v37.03q.001 14.76 6.211 21zm5.61-38.46q0-9 3.96-12.54t11.16-3.54a22.116 22.116 0 0 1 8.58 1.35 9.547 9.547 0 0 1 4.83 5.04q1.71 3.69 1.71 10.29v16.86q0 9.24-3.6 12.66t-11.52 3.42q-8.04 0-11.67-3.42t-3.57-12.66zm67.81 67.68v-29.88a13.5 13.5 0 0 0 6.88 4.9 36.1 36.1 0 0 0 10.49 1.28q11.715 0 18.02-6.84t6.31-21.06v-18.9a37.791 37.791 0 0 0 -1.75-12.24 18.59 18.59 0 0 0 -5.04-8.05 20.69 20.69 0 0 0 -7.63-4.29 33.268 33.268 0 0 0 -9.91-1.35 23.7 23.7 0 0 0 -11.32 2.61 12.994 12.994 0 0 0 -6.52 7.24l-1.45-9.49h-9.78v96.07zm0-66.68q0-10.17 3.84-14.34 3.855-4.185 11.79-4.48 7.575 0 10.97 3.18t3.4 11.73v18.83q0 9.315-3.58 13.11t-11.63 3.79c-5.34 0-9.13-1.21-11.4-3.61s-3.39-6.64-3.39-12.69zm65.94 42.5 15.18-26.4h10.5v26.4h11.94v-71.41h-26.44a34.288 34.288 0 0 0 -8.77 1.05 20.716 20.716 0 0 0 -6.94 3.3 14.607 14.607 0 0 0 -4.68 6.07 22.608 22.608 0 0 0 -1.65 9.03v4.92q0 15.72 14.04 19.38l-16.86 27.66zm.84-51.48q0-5.7 2.46-7.47t8.58-1.77h13.8v23.64h-13.8q-6 0-8.52-2.13t-2.52-8.07zm91.98-17.95q0-15.84 14.1-15.84 7.44 0 10.92 3.4t3.48 10.5a14.657 14.657 0 0 1 -1.38 6.46 14.176 14.176 0 0 1 -3.69 4.79 35.942 35.942 0 0 1 -5.31 3.61q-3 1.68-6.33 3.33c-2.22 1.1-4.44 2.26-6.66 3.5a33.428 33.428 0 0 0 -6.33 4.62 34.028 34.028 0 0 0 -5.31 6.2 28.687 28.687 0 0 0 -3.69 8.63 45.037 45.037 0 0 0 -1.38 11.59v18.64h51.01v-11.4h-39.07v-7.22a30.026 30.026 0 0 1 1.38-9.5 19.564 19.564 0 0 1 3.69-6.8 27.459 27.459 0 0 1 5.31-4.69 45.629 45.629 0 0 1 6.3-3.61c2.2-1.04 4.39-2.09 6.58-3.13a41.836 41.836 0 0 0 6.26-3.67 28.2 28.2 0 0 0 5.28-4.81 20.3 20.3 0 0 0 3.67-6.95 31.62 31.62 0 0 0 1.37-9.71q0-12.315-6.72-18.39t-18.84-6.07q-12.36 0-19.35 6.57t-6.99 19.95zm57.9 64.27q6.12 6.36 19.98 6.36 13.29 0 19.19-6.39t5.89-20.97v-42.91q0-25.785-25.08-25.8-26.1 0-26.1 25.8v42.91q.001 14.64 6.121 21zm5.58-63.91a27.546 27.546 0 0 1 .96-7.89 9.46 9.46 0 0 1 2.97-4.77 11.336 11.336 0 0 1 4.44-2.22 26.175 26.175 0 0 1 6.03-.6 23.609 23.609 0 0 1 5.76.6 9.8 9.8 0 0 1 4.11 2.25 9.626 9.626 0 0 1 2.67 4.74 30.891 30.891 0 0 1 .84 7.89v42.91q0 9.36-3.27 13.02t-10.11 3.66q-7.98 0-11.19-3.54t-3.21-13.14zm89.88 69.07v-9.72h-14.579v-85.15h-23.76v10.32h12.06v74.83h-15.36v9.72h41.64zm13.77-6.06q6.885 7.14 21.16 7.14 14.07 0 20.95-7.26t6.88-22.68a48.556 48.556 0 0 0 -1.29-12.21 20.055 20.055 0 0 0 -3.56-7.64 21.345 21.345 0 0 0 -6.09-4.94q8.85-6.18 8.84-17.82 0-10.92-6.67-18t-19.06-7.08q-12.435 0-19.69 6.6t-7.26 18.24q0 12.735 9.68 18.55a18.736 18.736 0 0 0 -8.1 8.66q-2.655 5.655-2.66 16.24.001 15.06 6.871 22.2zm9.22-37.11q3.3-4.95 11.84-5.13c5.66.12 9.59 1.82 11.82 5.1s3.33 8.14 3.33 14.58q0 9.42-3.3 13.98c-2.21 3.04-6.15 4.56-11.85 4.56s-9.64-1.52-11.84-4.56-3.31-7.7-3.31-13.98q.001-9.6 3.311-14.55zm.9-38.3c2.49-2.45 6.13-3.68 10.95-3.68q13.875 0 13.88 13.8 0 12.72-14 12.73-6.555 0-10.56-3.38a11.6 11.6 0 0 1 -4-9.35q.001-6.45 3.731-10.12zm95.22 81.47v-60.6h26.64v-10.93h-38.1v71.53zm41.25-5.13q6.21 6.33 20.73 6.33 14.31 0 20.62-6.36t6.32-21v-20.52q0-13.74-6.96-19.9-6.96-6.135-19.98-6.15t-19.98 6.15q-6.96 6.165-6.96 19.9v20.52q.001 14.7 6.211 21.03zm5.49-41.67a27.435 27.435 0 0 1 .96-7.92 9.352 9.352 0 0 1 3.06-4.77 12.149 12.149 0 0 1 4.71-2.28 33.95 33.95 0 0 1 13.02 0 12.149 12.149 0 0 1 4.71 2.28 9.352 9.352 0 0 1 3.06 4.77 27.435 27.435 0 0 1 .96 7.92v20.52q0 9.6-3.48 13.38t-11.76 3.78q-8.04 0-11.64-3.81t-3.6-13.35zm49.62 60.06h11.16v-13.38h43.92v13.38h11.16v-24.3h-8.46v-60.49h-41.76l-.78 27.61q0 11.925-1.81 18.98-2.9 9.345-8.43 13.9h-5zm24.39-35.26a90.318 90.318 0 0 0 2.55-21.9l.36-16.7h19.02v49.56h-27.64a29.966 29.966 0 0 0 5.71-10.96zm49.77 10.48a17.253 17.253 0 0 0 2.19 4.62 14.258 14.258 0 0 0 3.81 3.93 19.066 19.066 0 0 0 5.97 2.58 32.62 32.62 0 0 0 8.43.99 21.549 21.549 0 0 0 11.26-3.03 17.441 17.441 0 0 0 7.11-7.29l1.01 9.72h10.44v-48.54q0-12.66-6.37-18.37-6.375-5.685-18.65-5.7-11.7 0-17.58 5.52-5.88 5.535-5.52 17.23h11.46q-.06-6.84 2.82-9.45t8.46-2.61q7.62 0 10.65 3.39t3.03 9.99v7.02a148.881 148.881 0 0 0 -17.34 1.08q-11.1 1.56-17.07 7.98t-5.07 15.9a29.689 29.689 0 0 0 .961 5.04zm22.14-19.08q5.34-1.2 16.62-1.2a39.3 39.3 0 0 1 -1.02 8.34 22.458 22.458 0 0 1 -2.79 6.66 12.432 12.432 0 0 1 -5.25 4.62 18.36 18.36 0 0 1 -8.04 1.62 14.428 14.428 0 0 1 -7.44-1.77 6.93 6.93 0 0 1 -3.36-5.73q-1.2-9.84 11.28-12.54zm-1097.849 178.06 29.763-51.96v51.96h11.7v-71.41h-12.777l-29.586 51.61v-51.61h-11.7v71.41zm103.607.18-2.982 10.14a15.265 15.265 0 0 1 -2.64 5.2 5.805 5.805 0 0 1 -3.51 2.13 10.667 10.667 0 0 1 -3.66-.03 21.537 21.537 0 0 1 -3.93-1.23l-2.1 9.96q10.287 4.2 16.641 1.23t9.8-13.77l4.26-13.62 22.279-72.08h-12.18l-6.963 22.39a346.788 346.788 0 0 0 -9 34.02l-9.478-33.26-6.6-23.15h-12.779zm50.239-.18 20.281-31.8h4.92v31.8h11.7v-31.8h4.68l20.4 31.8h13.62l-23.7-36.34a17.413 17.413 0 0 0 5.4-5.62 34.282 34.282 0 0 0 3.27-6.82q1.11-3.27 2.34-6.29a10.067 10.067 0 0 1 3.45-4.57 8.04 8.04 0 0 1 5.82-1.09v-10.68a22.308 22.308 0 0 0 -7.2.4 13.1 13.1 0 0 0 -5.19 2.34 18.676 18.676 0 0 0 -3.57 3.75 23.426 23.426 0 0 0 -2.61 4.65c-.7 1.66-1.361 3.33-1.98 4.99s-1.281 3.26-1.98 4.79a24.96 24.96 0 0 1 -2.341 4.09 9.145 9.145 0 0 1 -3.33 2.86 10.221 10.221 0 0 1 -4.74 1.06h-2.34v-28.93h-11.7v28.93h-2.34a10.186 10.186 0 0 1 -5.25-1.33 9.863 9.863 0 0 1 -3.54-3.49 48.1 48.1 0 0 1 -2.52-4.91c-.821-1.82-1.551-3.68-2.191-5.56a27.486 27.486 0 0 0 -2.58-5.47 22.8 22.8 0 0 0 -3.66-4.59 13.218 13.218 0 0 0 -5.49-2.97 21.085 21.085 0 0 0 -7.95-.61v10.68a8.143 8.143 0 0 1 5.85 1.09 10.366 10.366 0 0 1 3.54 4.57q1.29 3.015 2.4 6.28a34.424 34.424 0 0 0 3.27 6.81 17.628 17.628 0 0 0 5.341 5.64l-23.761 36.34h13.68zm89.695-5.22q6.053 5.94 20.438 5.94 13.7 0 20-5.46t6.308-16.14h-11.277q0 5.46-3.637 8.07t-11.393 2.61q-8.176 0-11.6-3.23-3.426-3.21-3.426-12.41v-5.36h41.581v-15.36q0-25.68-26.551-25.69-12.826 0-19.659 6.06-6.831 6.075-6.832 19.63v21q-.004 14.4 6.049 20.34zm5.409-41.43a25.507 25.507 0 0 1 .992-7.73 9.248 9.248 0 0 1 3.095-4.68 12.423 12.423 0 0 1 4.66-2.24 26.687 26.687 0 0 1 6.282-.63 27.467 27.467 0 0 1 6.342.63 12.707 12.707 0 0 1 4.781 2.27 9.6 9.6 0 0 1 3.217 4.71 23.953 23.953 0 0 1 1.051 7.67v5.13h-30.42zm85.446 37.44a12.825 12.825 0 0 0 4.9 6.33 20.454 20.454 0 0 0 7.518 3.03 56.577 56.577 0 0 0 10.5.81 39.3 39.3 0 0 0 10.171-1.21 24.153 24.153 0 0 0 8.01-3.7 16.116 16.116 0 0 0 5.37-6.8 24.821 24.821 0 0 0 1.89-10.07 22.385 22.385 0 0 0 -2.31-10.77q-2.31-4.245-8.01-6.15a11.659 11.659 0 0 0 6.87-5.67 19.762 19.762 0 0 0 2.13-9.33 20.636 20.636 0 0 0 -1.92-9.19 15.262 15.262 0 0 0 -5.31-6.12 24.953 24.953 0 0 0 -7.56-3.27 37.95 37.95 0 0 0 -9.151-1.05q-23.522 0-23.52 19.93h11.46c0-3.61 1.01-6.1 3.03-7.51 2.02-1.39 4.97-2.1 8.85-2.1q12.422 0 12.421 9.61 0 5.28-2.85 7.47t-8.311 2.19h-9.36v10.32h9.335q6.7 0 9.6 2.47 2.9 2.49 2.9 9.17 0 5.79-3.823 8.62a15.919 15.919 0 0 1 -9.738 2.84 39.836 39.836 0 0 1 -5.52-.3 11.836 11.836 0 0 1 -3.93-1.31 5.716 5.716 0 0 1 -2.7-3.14 15.963 15.963 0 0 1 -.81-5.57h-11.7a29.784 29.784 0 0 0 1.572 10.47zm60.114-2.31a17.253 17.253 0 0 0 2.19 4.62 14.258 14.258 0 0 0 3.81 3.93 19.066 19.066 0 0 0 5.97 2.58 32.62 32.62 0 0 0 8.43.99 21.524 21.524 0 0 0 11.26-3.03 17.47 17.47 0 0 0 7.12-7.29l1 9.72h10.44v-48.54q0-12.66-6.37-18.37t-18.65-5.7q-11.7 0-17.58 5.52c-3.92 3.69-5.76 9.42-5.52 17.23h11.46q-.06-6.855 2.82-9.46t8.46-2.61c5.08 0 8.63 1.14 10.65 3.39q3.03 3.405 3.03 10v7.02a148.881 148.881 0 0 0 -17.34 1.08q-11.1 1.56-17.07 7.98t-5.07 15.9a29.689 29.689 0 0 0 .96 5.04zm22.14-19.08q5.34-1.2 16.62-1.2a39.3 39.3 0 0 1 -1.02 8.34 22.458 22.458 0 0 1 -2.79 6.66 12.432 12.432 0 0 1 -5.25 4.62 18.36 18.36 0 0 1 -8.04 1.62 14.428 14.428 0 0 1 -7.44-1.77 6.93 6.93 0 0 1 -3.36-5.73q-1.2-9.84 11.28-12.54zm67.72 30.6q25.71 0 25.71-21.72a18.088 18.088 0 0 0 -3.14-10.64 17.635 17.635 0 0 0 -8.92-6.51 12.852 12.852 0 0 0 6.46-5.44 18.574 18.574 0 0 0 1.82-8.81q0-9.045-6.24-13.73t-15.64-4.68h-25.1v71.53zm-13.59-61.21h13.7a11.343 11.343 0 0 1 7.51 2.38 8.427 8.427 0 0 1 2.85 6.87 8.589 8.589 0 0 1 -2.7 6.77 10.614 10.614 0 0 1 -7.36 2.41h-14zm.24 28.15h13.89q6.405 0 9.93 2.55 3.54 2.55 3.54 8.61 0 5.64-3.06 8.43c-2.03 1.86-5.55 2.79-10.53 2.79h-13.77zm56.99 27.84q6.045 5.94 20.44 5.94 13.695 0 20-5.46t6.31-16.14h-11.28c0 3.64-1.22 6.33-3.64 8.07s-6.22 2.61-11.39 2.61q-8.175 0-11.61-3.23-3.42-3.21-3.42-12.41v-5.36h41.58v-15.36q0-25.68-26.55-25.69-12.825 0-19.66 6.06-6.84 6.075-6.83 19.63v21q0 14.4 6.05 20.34zm5.41-41.43a25.576 25.576 0 0 1 .99-7.73 9.248 9.248 0 0 1 3.09-4.68 12.5 12.5 0 0 1 4.66-2.24 26.765 26.765 0 0 1 6.29-.63 27.521 27.521 0 0 1 6.34.63 12.7 12.7 0 0 1 4.78 2.27 9.673 9.673 0 0 1 3.22 4.71 23.984 23.984 0 0 1 1.05 7.67v5.13h-30.42zm67.86 70.83v-29.88a13.54 13.54 0 0 0 6.88 4.9 36.148 36.148 0 0 0 10.49 1.28q11.715 0 18.02-6.84t6.31-21.06v-18.9a38.19 38.19 0 0 0 -1.74-12.25 18.627 18.627 0 0 0 -5.05-8.04 20.61 20.61 0 0 0 -7.63-4.29 33.221 33.221 0 0 0 -9.91-1.35 23.7 23.7 0 0 0 -11.32 2.61 13.044 13.044 0 0 0 -6.52 7.23l-1.45-9.48h-9.78v96.07zm0-66.68q0-10.17 3.85-14.34 3.84-4.185 11.78-4.49 7.575 0 10.97 3.19t3.4 11.73v18.83q0 9.315-3.58 13.11t-11.63 3.79q-7.995 0-11.39-3.61t-3.4-12.69zm137.16 42.5v-71.41h-11.7v60.49h-22.92v-60.49h-11.46v60.49h-22.92v-60.49h-11.7v71.41zm19.2-5.22q6.045 5.94 20.43 5.94 13.7 0 20.01-5.46t6.3-16.14h-11.28q0 5.46-3.63 8.07-3.645 2.61-11.4 2.61-8.175 0-11.6-3.23-3.435-3.21-3.43-12.41v-5.36h41.58v-15.36q0-25.68-26.55-25.69-12.825 0-19.66 6.06-6.825 6.075-6.83 19.63v21q0 14.4 6.06 20.34zm5.4-41.43a25.576 25.576 0 0 1 .99-7.73 9.325 9.325 0 0 1 3.1-4.68 12.43 12.43 0 0 1 4.66-2.24 26.675 26.675 0 0 1 6.28-.63 27.4 27.4 0 0 1 6.34.63 12.745 12.745 0 0 1 4.79 2.27 9.593 9.593 0 0 1 3.21 4.71 23.984 23.984 0 0 1 1.05 7.67v5.13h-30.42zm67.02 46.65v-32.1h29.71v32.1h11.7v-71.41h-11.7v28.39h-29.71v-28.39h-11.7v71.41zm60.46-5.13q6.21 6.33 20.73 6.33 14.31 0 20.62-6.36t6.32-21v-20.52q0-13.74-6.96-19.9t-19.98-6.15q-13.02 0-19.98 6.15t-6.96 19.9v20.52q0 14.7 6.21 21.03zm5.49-41.67a27.557 27.557 0 0 1 .96-7.93 9.437 9.437 0 0 1 3.06-4.77 12.291 12.291 0 0 1 4.71-2.28 33.95 33.95 0 0 1 13.02 0 12.291 12.291 0 0 1 4.71 2.28 9.437 9.437 0 0 1 3.06 4.77 27.557 27.557 0 0 1 .96 7.93v20.52q0 9.6-3.48 13.38t-11.76 3.78q-8.04 0-11.64-3.81t-3.6-13.35zm55.83 45.28a5.859 5.859 0 0 0 3.54 2.07 10.694 10.694 0 0 0 4.14-.12 6.15 6.15 0 0 0 3.54-2.28 6.686 6.686 0 0 0 1.47-4.34 7.087 7.087 0 0 0 -1.47-4.56 4.376 4.376 0 0 0 -3.54-1.85 20.074 20.074 0 0 0 -4.14.43 6.389 6.389 0 0 0 -5.01 6.37 6.34 6.34 0 0 0 1.47 4.28z" fill="#24195c" fill-rule="evenodd" transform="translate(-356.219 -2434.28)"/></svg>