<?xml version="1.0" encoding="utf-8"?>
<!-- Generator: Adobe Illustrator 22.0.1, SVG Export Plug-In . SVG Version: 6.00 Build 0)  -->
<svg version="1.1" id="Layer_1" xmlns="http://www.w3.org/2000/svg" xmlns:xlink="http://www.w3.org/1999/xlink" x="0px" y="0px"
	 viewBox="0 0 251 144" style="enable-background:new 0 0 251 144;" xml:space="preserve">
<style type="text/css">
	.st0{fill:#FFFFFF;}
</style>
<path class="st0" d="M53.5,122.4c0-33.6,0-67.2,0-100.8c0.1-0.5,0.3-1,0.4-1.5c2.3-9.8,8.3-16.2,17.9-19.3C72.9,0.5,74,0.3,75.1,0
	c33.6,0,67.2,0,100.8,0c0.3,0.1,0.6,0.2,0.9,0.3c10.3,2.2,17,8.4,20,18.5c0.3,0.9,0.5,1.9,0.7,2.9c0,33.6,0,67.2,0,100.8
	c-0.1,0.4-0.2,0.7-0.3,1.1c-2.2,10.2-8.4,16.8-18.3,19.8c-1,0.3-2,0.5-3,0.7c-9.3,0-18.6,0-27.8,0c0-0.4-0.1-0.8-0.1-1.2
	c0-17.2,0-34.4,0-51.6c0-0.4,0-0.9,0-1.5c0.6,0,1,0,1.5,0c7.1,0,14.1,0,21.2,0c1,0,1.4-0.2,1.4-1.3c-0.1-7.1,0-14.3,0-21.4
	c0-0.4,0-0.8-0.1-1.4c-8,0-15.9,0-23.8,0c0-3.7-0.2-7.3,0-10.8c0.2-3.4,2.4-5.1,5.7-5.1c5.5,0,11,0,16.6,0c0.5,0,1-0.1,1.5-0.1
	c0-8,0-15.9,0-23.9c-0.5,0-0.8,0-1.2,0c-5.9,0-11.7,0-17.6,0c-5.2,0-10,1.5-14.2,4.5c-7.3,5.2-11.5,12.3-12.8,21
	c-0.7,4.3-0.4,8.8-0.5,13.2c0,0.4,0,0.9,0,1.4c-6,0-11.7,0-17.5,0c0,0.4-0.1,0.6-0.1,0.9c0,7.3,0,14.6,0,22c0,1,0.4,1.1,1.2,1.1
	c5,0,10,0,15,0c0.4,0,0.9,0,1.5,0c0,18.2,0,36.3,0,54.4c-16.8,0-33.6,0-50.4,0c-0.3-0.1-0.6-0.2-1-0.3c-10.2-2.2-16.9-8.3-19.9-18.4
	C53.9,124.4,53.7,123.4,53.5,122.4z"/>
</svg>
