<svg enable-background="new 0 0 251 144" viewBox="0 0 251 144" xmlns="http://www.w3.org/2000/svg"><path d="m53.5 122.4c0-33.6 0-67.2 0-100.8.1-.5.3-1 .4-1.5 2.3-9.8 8.3-16.2 17.9-19.3 1.1-.3 2.2-.5 3.3-.8h100.8c.3.1.6.2.9.3 10.3 2.2 17 8.4 20 18.5.3.9.5 1.9.7 2.9v100.8c-.1.4-.2.7-.3 1.1-2.2 10.2-8.4 16.8-18.3 19.8-1 .3-2 .5-3 .7-9.3 0-18.6 0-27.8 0 0-.4-.1-.8-.1-1.2 0-17.2 0-34.4 0-51.6 0-.4 0-.9 0-1.5h1.5 21.2c1 0 1.4-.2 1.4-1.3-.1-7.1 0-14.3 0-21.4 0-.4 0-.8-.1-1.4-8 0-15.9 0-23.8 0 0-3.7-.2-7.3 0-10.8.2-3.4 2.4-5.1 5.7-5.1h16.6c.5 0 1-.1 1.5-.1 0-8 0-15.9 0-23.9-.5 0-.8 0-1.2 0-5.9 0-11.7 0-17.6 0-5.2 0-10 1.5-14.2 4.5-7.3 5.2-11.5 12.3-12.8 21-.7 4.3-.4 8.8-.5 13.2v1.4c-6 0-11.7 0-17.5 0 0 .4-.1.6-.1.9v22c0 1 .4 1.1 1.2 1.1h15 1.5v54.4c-16.8 0-33.6 0-50.4 0-.3-.1-.6-.2-1-.3-10.2-2.2-16.9-8.3-19.9-18.4-.6-1.2-.8-2.2-1-3.2z" fill="#fff"/></svg>