<?xml version="1.0" encoding="utf-8"?>
<!-- Generator: Adobe Illustrator 22.0.1, SVG Export Plug-In . SVG Version: 6.00 Build 0)  -->
<svg version="1.1" id="Layer_1" xmlns="http://www.w3.org/2000/svg" xmlns:xlink="http://www.w3.org/1999/xlink" x="0px" y="0px"
	 viewBox="0 0 251 144" style="enable-background:new 0 0 251 144;" xml:space="preserve">
<style type="text/css">
	.st0{fill:#FFFFFF;}
</style>
<path class="st0" d="M175,18.5c-6.8,6.8-13.4,13.3-20.3,20.2c-9.5-7.8-20.9-11.2-33.5-9.5c-9.5,1.3-17.8,5.3-24.6,12.2
	c-13.8,13.9-16.9,34.2-7.7,51.2c9.3,17.3,26.8,25.2,45.9,22.4c16.3-2.4,28.6-15.8,30.9-27.9c-1.3,0-2.4,0-3.6,0
	c-10.3,0-20.7-0.1-31,0.1c-3,0-4.2-0.6-4.1-3.9c0.2-6.7,0.2-13.5,0-20.2c-0.1-2.9,0.9-3.6,3.7-3.6c20.2,0.1,40.4,0.1,60.7,0
	c2.9,0,3.9,0.9,4.2,3.7c2.3,25.7-4,48.4-23.9,66c-14.1,12.4-31.3,15.8-49.4,14.8c-15.8-0.8-30-6.7-42-17.1
	c-14.3-12.4-22.8-28.1-24.6-47.1C52.7,50,64.4,27.1,89,11.2c18.2-11.8,38.3-14,59.2-7.8C158.2,6.4,166.9,11.8,175,18.5z"/>
</svg>
