<svg enable-background="new 0 0 251 144" viewBox="0 0 251 144" xmlns="http://www.w3.org/2000/svg"><path d="m175 18.5c-6.8 6.8-13.4 13.3-20.3 20.2-9.5-7.8-20.9-11.2-33.5-9.5-9.5 1.3-17.8 5.3-24.6 12.2-13.8 13.9-16.9 34.2-7.7 51.2 9.3 17.3 26.8 25.2 45.9 22.4 16.3-2.4 28.6-15.8 30.9-27.9-1.3 0-2.4 0-3.6 0-10.3 0-20.7-.1-31 .1-3 0-4.2-.6-4.1-3.9.2-6.7.2-13.5 0-20.2-.1-2.9.9-3.6 3.7-3.6 20.2.1 40.4.1 60.7 0 2.9 0 3.9.9 4.2 3.7 2.3 25.7-4 48.4-23.9 66-14.1 12.4-31.3 15.8-49.4 14.8-15.8-.8-30-6.7-42-17.1-14.3-12.4-22.8-28.1-24.6-47.1-3-29.8 8.7-52.7 33.3-68.6 18.2-11.8 38.3-14 59.2-7.8 10 3 18.7 8.4 26.8 15.1z" fill="#fff"/></svg>