<svg height="109.15" viewBox="0 0 906.282 109.15" width="906.282" xmlns="http://www.w3.org/2000/svg"><path d="m106.65 1107.19h20.057l-20.487-31.74 20.487-31.89h-20.057l-20.7 31.75zm27.721 0h20.056l-20.486-31.74 20.486-31.89h-20.056l-20.7 31.75zm54.439 14.95v-91.11h35.314v91.11h20.056v-108.88h-75.427v108.88zm95.07 0 22.024-38.42h7.972v38.42h20.057v-108.88h-28.045q-20.313 0-29.872 7.78t-9.559 24.9v5.64q0 12.045 4.39 18.99 4.388 6.96 14.113 10.19l-24.86 41.38zm2.633-75.32a27.344 27.344 0 0 1 .718-6.89 11.279 11.279 0 0 1 2.694-4.83 11.477 11.477 0 0 1 5.709-3.11 39.324 39.324 0 0 1 9.551-.96h8.834v34.76h-8.546q-10.7 0-14.831-3.59t-4.129-11.65zm83.449-16.34v91.66h20.057v-91.66h23.351v-17.22h-66.97v17.22h23.566zm74.854 91.66v-44.83h35.314v44.83h20.056v-108.74h-20.056v46.14h-35.314v-46.14h-20.056v108.74zm87.89 0 5.874-19.42h28.938l5.659 19.42h20.845l-30.8-108.47h-20.058l-31.3 108.47h20.844zm20.272-78.44 9.383 40.22h-18.767zm171.912 78.44v-108.88h-20.057v91.66h-29.44v-91.66h-20.056v91.66h-29.727v-91.66h-20.056v108.88zm40.184 0v-45.7h7.88l29.655 45.7h24.784l-36.532-53.98a26.63 26.63 0 0 0 6.232-8.21 88.126 88.126 0 0 0 4.943-12.56c.19-.65.476-1.57.859-2.77q.93-3.03 1.5-4.62a27.839 27.839 0 0 1 1.576-3.49 8.538 8.538 0 0 1 2.113-2.76 13.768 13.768 0 0 1 2.973-1.65 13.575 13.575 0 0 1 4.369-.97 60.289 60.289 0 0 1 6.089-.03l1.5-17.84a53.8 53.8 0 0 0 -15.185.55q-12.106 2.385-18.123 12.52-2.793 4.635-6.3 15.67c-.478 1.43-.765 2.28-.86 2.56s-.37 1.04-.824 2.31a21.114 21.114 0 0 1 -.967 2.41q-.286.525-1.074 2.01a7.617 7.617 0 0 1 -1.325 1.96c-.358.33-.86.81-1.5 1.45a5.376 5.376 0 0 1 -1.9 1.31 21.332 21.332 0 0 1 -2.184.66 10.7 10.7 0 0 1 -2.615.31h-4.942v-43.72h-20.2v108.88h20.056zm92.976 0 31.589-69.14v69.14h20.061v-108.74h-20.061l-33.451 71.76 2.292-46.08v-25.68h-20.056v108.74zm85.742-14.95 20.7-31.88-20.7-31.75h-20.129l20.558 31.89-20.558 31.74zm27.72 0 20.7-31.88-20.7-31.75h-20.128l20.558 31.89-20.558 31.74z" fill="#d20536" fill-rule="evenodd" transform="translate(-85.938 -1012.97)"/></svg>