<svg xmlns="http://www.w3.org/2000/svg" width="906.282" height="109.15" viewBox="0 0 906.282 109.15">
  <metadata><?xpacket begin="﻿" id="W5M0MpCehiHzreSzNTczkc9d"?>
<x:xmpmeta xmlns:x="adobe:ns:meta/" x:xmptk="Adobe XMP Core 5.6-c140 79.160451, 2017/05/06-01:08:21        ">
   <rdf:RDF xmlns:rdf="http://www.w3.org/1999/02/22-rdf-syntax-ns#">
      <rdf:Description rdf:about=""/>
   </rdf:RDF>
</x:xmpmeta>
                                                                                                    
                                                                                                    
                                                                                                    
                                                                                                    
                                                                                                    
                                                                                                    
                                                                                                    
                                                                                                    
                                                                                                    
                                                                                                    
                                                                                                    
                                                                                                    
                                                                                                    
                                                                                                    
                                                                                                    
                                                                                                    
                                                                                                    
                                                                                                    
                                                                                                    
                                                                                                    
                           
<?xpacket end="w"?></metadata>
<defs>
    <style>
      .cls-1 {
        fill: #d20536;
        fill-rule: evenodd;
      }
    </style>
  </defs>
  <path id="pytnashki" class="cls-1" d="M106.65,1107.19h20.057l-20.487-31.74,20.487-31.89H106.65l-20.7,31.75Zm27.721,0h20.056l-20.486-31.74,20.486-31.89H134.371l-20.7,31.75Zm54.439,14.95v-91.11h35.314v91.11H244.18V1013.26H168.753v108.88H188.81Zm95.07,0,22.024-38.42h7.972v38.42h20.057V1013.26H305.888q-20.313,0-29.872,7.78t-9.559,24.9v5.64q0,12.045,4.39,18.99,4.388,6.96,14.113,10.19L260.1,1122.14H283.88Zm2.633-75.32a27.344,27.344,0,0,1,.718-6.89,11.279,11.279,0,0,1,2.694-4.83,11.477,11.477,0,0,1,5.709-3.11,39.324,39.324,0,0,1,9.551-.96h8.834v34.76h-8.546q-10.7,0-14.831-3.59t-4.129-11.65v-3.73Zm83.449-16.34v91.66h20.057v-91.66H413.37v-17.22H346.4v17.22h23.566Zm74.854,91.66v-44.83H480.13v44.83h20.056V1013.4H480.13v46.14H444.816V1013.4H424.76v108.74h20.056Zm87.89,0,5.874-19.42h28.938l5.659,19.42h20.845l-30.8-108.47H543.164l-31.3,108.47h20.844Zm20.272-78.44,9.383,40.22H543.594Zm171.912,78.44V1013.26H704.833v91.66h-29.44v-91.66H655.337v91.66H625.61v-91.66H605.554v108.88H724.89Zm40.184,0v-45.7h7.88l29.655,45.7h24.784l-36.532-53.98a26.63,26.63,0,0,0,6.232-8.21,88.126,88.126,0,0,0,4.943-12.56c0.19-.65.476-1.57,0.859-2.77q0.93-3.03,1.5-4.62a27.839,27.839,0,0,1,1.576-3.49,8.538,8.538,0,0,1,2.113-2.76,13.768,13.768,0,0,1,2.973-1.65,13.575,13.575,0,0,1,4.369-.97,60.289,60.289,0,0,1,6.089-.03l1.5-17.84a53.8,53.8,0,0,0-15.185.55q-12.106,2.385-18.123,12.52-2.793,4.635-6.3,15.67c-0.478,1.43-.765,2.28-0.86,2.56s-0.37,1.04-.824,2.31a21.114,21.114,0,0,1-.967,2.41q-0.286.525-1.074,2.01a7.617,7.617,0,0,1-1.325,1.96c-0.358.33-.86,0.81-1.5,1.45a5.376,5.376,0,0,1-1.9,1.31,21.332,21.332,0,0,1-2.184.66,10.7,10.7,0,0,1-2.615.31h-4.942v-43.72h-20.2v108.88h20.056Zm92.976,0L889.639,1053v69.14H909.7V1013.4H889.639l-33.451,71.76,2.292-46.08V1013.4H838.424v108.74H858.05Zm85.742-14.95,20.7-31.88-20.7-31.75H923.663l20.558,31.89-20.558,31.74h20.129Zm27.72,0,20.7-31.88-20.7-31.75H951.384l20.558,31.89-20.558,31.74h20.128Z" transform="translate(-85.938 -1012.97)"/>
</svg>
