<svg enable-background="new 0 0 251 144" viewBox="0 0 251 144" xmlns="http://www.w3.org/2000/svg"><path d="m146.8 36.1c0 8.3-.1 16.5.1 24.8.1 2.1.9 4.4 2 6.2 2.2 3.7 5.3 4 8.6 1.2 4.6-3.8 8.2-8.4 11.6-13.4 8.7-12.9 16-26.5 21.6-41 .1-.3.3-.6.4-.9 2.2-5.3 3.6-6.1 9.4-6.1 13.4-.1 26.7-.3 40.1-.4 2.1 0 4.4.3 6.4 1 3.2 1 4.7 3.2 3.8 6.5-1 3.8-2.3 7.7-4.1 11.2-5.9 11.6-14 21.7-21.8 32.1-4.1 5.5-8.3 11-12.1 16.7-4.2 6.2-3.7 10.6 1.5 15.9 6.7 6.8 13.8 13.3 20.2 20.3 5 5.5 9.4 11.5 13.7 17.5 1.3 1.8 2 4.3 2.3 6.5.8 4.4-.9 7-5.2 8.3-2.1.6-4.5.8-6.7.9-11.5.3-23 .7-34.5.7-5.9 0-11.4-2.3-15.8-6.2-5.9-5.4-11.2-11.5-16.8-17.3-2.4-2.5-4.9-4.9-7.4-7.2-.8-.8-1.9-1.4-2.9-2-3.1-1.7-5.4-1.4-8 1-3.5 3.1-5 7.2-5.6 11.7-.6 3.7-.7 7.4-1 11.1-.4 4.8-2.8 7.7-7.5 8-16.4.8-32.9 1.3-48.1-6.6-14.1-7.3-26.7-16.4-36.7-29-21.5-26.9-37.9-56.7-51.8-88-.8-1.8-1.6-3.5-2.1-5.4-1.1-3.6.4-6.2 4-6.9 1.6-.5 3.4-.7 5.1-.7 10.8-.1 21.6-.1 32.5-.2 5.8 0 9.3 2.3 11.5 7.6 5.7 13.8 12.7 27 20 40.1 3 5.4 6.5 10.4 11.4 14.2 2.2 1.7 4.6 2.9 7.4 2 .9-.3 1.8-1 2.3-1.8 2.2-3.3 2.7-7.1 3.3-11 1.3-9.3 1.6-18.7.5-28.1-.3-3.1-1-6.1-1.7-9.1-1.3-5.5-5.2-8.1-10.3-9.5-1.1-.3-2.1-.8-3.1-1.2.7-1.1 1.2-2.3 2-3.2 2.5-2.8 5.7-4.2 9.3-4.8 13.2-2.1 26.3-2 39.6-.6 1.4.1 2.7.4 4 .7 5.9 1.6 7.7 3.5 8.6 10.6.6 5.4.1 10.9.1 16.3v7.4c0 .1 0 .1-.1.1z" fill="#fff"/></svg>