<?xml version="1.0" encoding="utf-8"?>
<!-- Generator: Adobe Illustrator 22.0.1, SVG Export Plug-In . SVG Version: 6.00 Build 0)  -->
<svg version="1.1" id="Layer_1" xmlns="http://www.w3.org/2000/svg" xmlns:xlink="http://www.w3.org/1999/xlink" x="0px" y="0px"
	 viewBox="0 0 251 144" style="enable-background:new 0 0 251 144;" xml:space="preserve">
<style type="text/css">
	.st0{fill:#fff;enable-background:new    ;}
</style>
<path class="st0" d="M146.8,36.1c0,8.3-0.1,16.5,0.1,24.8c0.1,2.1,0.9,4.4,2,6.2c2.2,3.7,5.3,4,8.6,1.2c4.6-3.8,8.2-8.4,11.6-13.4
	c8.7-12.9,16-26.5,21.6-41c0.1-0.3,0.3-0.6,0.4-0.9c2.2-5.3,3.6-6.1,9.4-6.1c13.4-0.1,26.7-0.3,40.1-0.4c2.1,0,4.4,0.3,6.4,1
	c3.2,1,4.7,3.2,3.8,6.5c-1,3.8-2.3,7.7-4.1,11.2c-5.9,11.6-14,21.7-21.8,32.1c-4.1,5.5-8.3,11-12.1,16.7c-4.2,6.2-3.7,10.6,1.5,15.9
	c6.7,6.8,13.8,13.3,20.2,20.3c5,5.5,9.4,11.5,13.7,17.5c1.3,1.8,2,4.3,2.3,6.5c0.8,4.4-0.9,7-5.2,8.3c-2.1,0.6-4.5,0.8-6.7,0.9
	c-11.5,0.3-23,0.7-34.5,0.7c-5.9,0-11.4-2.3-15.8-6.2c-5.9-5.4-11.2-11.5-16.8-17.3c-2.4-2.5-4.9-4.9-7.4-7.2
	c-0.8-0.8-1.9-1.4-2.9-2c-3.1-1.7-5.4-1.4-8,1c-3.5,3.1-5,7.2-5.6,11.7c-0.6,3.7-0.7,7.4-1,11.1c-0.4,4.8-2.8,7.7-7.5,8
	c-16.4,0.8-32.9,1.3-48.1-6.6c-14.1-7.3-26.7-16.4-36.7-29c-21.5-26.9-37.9-56.7-51.8-88c-0.8-1.8-1.6-3.5-2.1-5.4
	c-1.1-3.6,0.4-6.2,4-6.9C6,6.8,7.8,6.6,9.5,6.6C20.3,6.5,31.1,6.5,42,6.4c5.8,0,9.3,2.3,11.5,7.6c5.7,13.8,12.7,27,20,40.1
	c3,5.4,6.5,10.4,11.4,14.2c2.2,1.7,4.6,2.9,7.4,2c0.9-0.3,1.8-1,2.3-1.8c2.2-3.3,2.7-7.1,3.3-11c1.3-9.3,1.6-18.7,0.5-28.1
	c-0.3-3.1-1-6.1-1.7-9.1c-1.3-5.5-5.2-8.1-10.3-9.5c-1.1-0.3-2.1-0.8-3.1-1.2c0.7-1.1,1.2-2.3,2-3.2c2.5-2.8,5.7-4.2,9.3-4.8
	c13.2-2.1,26.3-2,39.6-0.6c1.4,0.1,2.7,0.4,4,0.7c5.9,1.6,7.7,3.5,8.6,10.6c0.6,5.4,0.1,10.9,0.1,16.3c0,2.5,0,5,0,7.4
	C146.9,36.1,146.9,36.1,146.8,36.1z"/>
</svg>
